<?xml version="1.0" encoding="UTF-8"?>
<svg width="132px" height="126px" viewBox="0 0 132 126" version="1.1" xmlns="http://www.w3.org/2000/svg" xmlns:xlink="http://www.w3.org/1999/xlink">
    <title>dd-logo</title>
    <g id="Page-1" stroke="none" stroke-width="1" fill="none" fill-rule="evenodd">
        <g id="dd-logo" transform="translate(0, 0)" fill="#FFFFFF" fill-rule="nonzero">
            <path d="M99.75,84.003 C102.849,86.172 105,90 105,93 C105,96.75 104.25,99.375 101.625,102 C101.625,102 102,102.375 103.875,102.375 C114.375,102.375 117,96.543 117,94.5 C117,88.5 111,87 111,87 C112.875,86.955 114.654,87.102 116.418,87.555 C121.467,88.848 125.247,91.677 127.605,96.327 C128.523,98.139 128.973,99.945 128.997,101.709 C129.045,105.186 127.497,108.747 124.122,111.747 C118.575,116.682 108.375,117 108,117 C108.987,118.089 111.75,120.375 115.875,120.375 C117.75,120.375 120,120 120,120 C119.892,120.141 117.75,122.625 112.08,124.728 C109.752,125.505 107.394,125.964 105,126 C103.59,126.021 102.171,125.895 100.74,125.604 C95.022,124.446 91.095,121.098 88.632,115.986 C87.81,114.282 87,110.625 87,109.875 C85.146,111.687 84.069,113.886 84,116.25 C84.375,121.125 87.039,122.946 87,123 C86.568,122.823 78,121.125 78,109.125 C77.961,107.199 78.009,105.642 78,103.875 C77.985,100.782 76.575,98.205 74.154,96.21 C70.077,92.85 65.985,89.502 61.875,86.181 C59.07,83.913 57.321,81.123 57.282,77.478 C57.258,75.204 56.181,73.539 54.405,72.198 C53.289,71.355 52.158,70.515 51.147,69.558 C49.362,67.866 49.029,65.772 49.638,63.417 C49.743,63.504 49.83,63.54 49.842,63.594 C50.541,66.426 52.701,67.455 55.335,67.881 C56.748,68.109 58.188,68.208 59.583,68.505 C61.047,68.82 61.878,69.852 62.214,71.265 C62.421,72.138 62.586,73.023 62.79,73.896 C63.183,75.579 64.038,76.281 65.781,76.392 C66.927,76.464 68.076,76.521 69.219,76.635 C71.01,76.815 72.564,77.532 73.953,78.663 C78.795,82.605 83.661,86.52 88.506,90.456 C89.751,91.464 91.875,93 94.125,93 C96.75,93 100.125,91.125 100.125,87.375 C100.125,85.125 99.75,84.003 99.75,84.003 Z" id="Path"/>
            <path d="M71.673,99.219 C68.256,96.402 64.821,93.603 61.38,90.813 C59.457,93.93 52.056,104.997 41.613,104.997 C36.435,104.997 31.695,101.958 29.25,97.221 C27.78,94.371 27,91.065 27,88.128 C27,75.378 35.025,68.403 35.217,68.154 C33.039,67.617 31.398,67.845 29.625,69.024 C27.831,70.218 24.588,72.255 24.351,72.381 C24,72.375 24,72.375 24,72 L25.125,64.5 C23.397,65.082 19.5,67.125 15,71.625 C12.75,73.875 10.929,75.873 10.929,75.873 C9.75,71.625 11.625,64.125 11.991,61.5 C12.207,59.97 11.616,59.9999573 11.616,59.9999573 C10.866,59.9999573 8.625,62.295 7.5,63.468 C4.023,67.086 1.815,71.22 0.57,76.092 C0.336,77.016 0.189,78.189 0,79.125 C0.072,79.149 1.875,76.5 3.375,76.5 C4.125,76.5 4.17,77.649 4.146,78.054 C4.107,78.681 3.894,79.308 3.696,79.917 C2.304,84.222 1.509,88.575 1.476,93 C1.461,95.028 1.608,97.068 1.929,99.126 C2.478,102.627 3.33,105.189 4.872,108.375 C7.05,112.875 10.971,116.811 11.247,117 C11.058,116.358 10.683,115.485 10.62,114.99 C10.494,114.033 10.299,113.049 10.404,112.104 C10.536,110.916 11.574,110.646 12.438,111.486 C12.825,111.864 17.073,115.881 19.578,117.519 C25.257,121.227 31.248,122.979 37.5,123.000231 C40.749,123.012 44.067,122.556 47.451,121.668 C52.347,120.381 56.667,117.999 60.519,114.783 C65.454,110.667 69.255,105.387 72.282,99.816 C72.084,99.615 71.907,99.411 71.673,99.219 Z M87.96,57.249 C81.984,61.191 76.998,67.74 72.645,73.341 C72.615,73.38 72.597,73.422 72.576,73.461 C73.929,73.953 75.219,74.661 76.416,75.636 C78.015,76.938 79.617,78.231 81.219,79.53 C81.348,79.269 81.468,79.032 81.573,78.813 C84.54,72.702 88.122,65.385 92.661,60.27 C97.095,55.272 104.88,53.727 110.658,56.517 C111.378,56.865 111.96,57.018 112.53,56.997 C113.112,56.976 113.682,56.778 114.375,56.418 C118.893,54.084 123.774,52.908 128.862,52.941 C129.864,52.95 132,53.25 132,53.25 C130.125,51.375 127.668,49.47 125.532,48.267 C121.557,46.032 117.471,45 113.25,45 C107.25,45 104.25,46.872 102.645,46.872 C102,46.872 101.685,46.698 101.463,46.404 C101.268,46.149 101.343,45.576 101.493,45.219 C102.375,43.5 104.802,42.135 105,42 C103.125,42 98.991,44.223 96.612,46.065 C95.013,47.301 93.426,48.552 91.815,49.773 C91.491,50.019 91.101,50.214 90.711,50.328 C89.652,50.637 89.112,50.115 89.424,49.086 C89.565,48.624 89.781,48.174 90.021,47.754 C90.408,47.073 90.846,46.419 91.296,45.705 C79.875,52.878 77.919,62.718 78,62.628 C81.354,58.98 85.146,56.133 89.625,54.003 C94.11,51.87 99,50.628 104.625,50.628 C104.625,50.628 105,50.931 105,51.003 C105,51.003 102.75,51.003 100.365,51.714 C95.862,52.749 91.776,54.729 87.96,57.249 Z" id="Shape"/>
            <path d="M44.25,24.75 C44.25,26.25 44.646,27.741 45.075,28.989 C46.191,32.247 48.333,34.881 50.772,37.269 C53.178,39.624 55.719,41.844 58.173,44.151 C60.648,46.476 62.799,49.041 64.077,52.209 C64.8,54 65.157,55.857 64.875,57.783 C64.797,58.32 64.995,58.578 65.472,58.782 C66.69,59.301 67.464,60.162 67.53,61.527 C67.56,62.172 67.962,62.07 68.349,61.869 C70.497,60.753 71.484,59.064 71.622,58.878 C71.868,59.391 72.003,60.027 71.9971918,60.753 C71.961,64.791 68.382,71.418 65.013,72.738 C65.058,72.444 65.091,72.207 65.133,71.97 C65.607,69.306 64.281,67.122 61.674,66.252 C59.913,65.664 58.458,65.652 56.619,65.625 C56.337,65.622 55.548,65.625 55.119,65.625 C55.26,65.301 56.298,63.156 56.529,62.322 C56.859,61.137 56.427,60.291 55.212,60.024 C53.895,59.733 52.524,59.55 51.177,59.556 C48.081,59.571 45.012,59.943 42,60.672 C41.58,60.774 40.902,60.99 40.491,61.125 C43.116,61.125 46.491,62.25 46.491,62.25 C46.491,62.25 44.991,65.25 44.991,67.125 C44.991,68.625 45.741,69.75 46.491,69.75 C47.241,69.75 47.658,69.246 48,69 C47.931,69.408 47.517,71.565 47.46,72.579 C47.373,74.172 48,75 49.875,75 C50.25,75 50.625,75 51,75 C50.25,77.625 44.604,81.081 41.25,81 C41.028,80.994 40.821,80.973 40.626,80.934 C42,80.25 44.07,77.625 44.07,76.503 L39.594,77.073 C39.594,77.073 41.121,75.168 41.61,74.211 C42.879,71.736 43.02,69.207 41.34,66.843 C39.921,64.845 37.623,63.99 35.25,63.753 C31.5,63.753 29.55,64.803 29.25,64.878 C30.957,61.158 33.393,58.863 37.125,57.003 C34.125,55.503 31.125,55.128 31.125,55.128 C34.125,53.253 38.625,51.753 42,51.003 C41.625,51.003 40.689,51.015 40.5,51.003 C29.25,51.003 24.843,56.817 24.75,57.003 C26.565,57.315 27.75,57.378 30,58.128 C30,58.128 24,59.253 15,66.003 C15.06,65.664 16.125,63.378 16.125,61.128 C16.125,53.253 6.153,54.831 6,54.753 C6.243,54.534 8.25,52.878 14.589,49.818 C15.777,49.176 19.125,47.628 19.125,45.753 C19.125,43.128 13.92,39.303 13.5,39.003 C17.625,39.003 19.941,39.39 23.25,40.128 C21.486,37.116 20.994,33.978 21.792,30.864 C23.07,33.264 24.906,35.148 27.144,36.624 C29.202,37.983 31.371,39.18 33.477,40.47 C35.073,41.448 36.729,42.354 38.205,43.485 C39.339,44.355 40.236,45.528 41.229,46.569 C41.394,46.743 41.526,46.947 41.676,47.136 C41.763,47.094 41.847,47.052 41.934,47.01 C41.697,46.419 41.508,45.804 41.217,45.237 C40.038,42.942 38.295,41.103 36.138,39.681 C35.253,39.096 34.77,38.403 34.599,37.422 C34.086,34.515 34.074,31.665 34.632,28.872 C34.935,27.363 36.75,24 36.75,24 L36.75,24.375 C36.852,28.35 38.364,31.533 40.875,34.5 C43.509,37.611 46.956,39.915 49.926,42.69 C55.125,47.625 57.339,50.394 57.75,51 C57.75,51 57.597,50.358 57.504,50.151 C56.076,46.878 53.763,44.241 51.174,41.817 C48.924,39.711 46.638,37.638 44.349,35.571 C43.521,34.821 43.032,33.93 42.9,32.841 C42.375,28.5 44.211,24.777 44.25,24.75 Z M51,51 C51,51 51.24,52.491 51.597,53.229 C53.25,56.625 57,57 57,57 C57,57 57,54.375 53.25,51.75 C52.143,50.976 51,51 51,51 Z" id="Shape"/>
            <path d="M18,28.875 C18.75,25.125 21,21 21,21 C21,21 22.389,25.719 24.75,28.875 C25.917,30.435 27.477,32.169 29.292,33.366 C29.634,33.591 29.979,33.813 30.33,34.032 C30.264,32.01 30.423,30.03 30.807,28.11 C31.134,26.475 32.283,24.126 32.997,22.758 L32.997,22.5 C33,16.701 37.029,12 42,12 C46.971,12 51,16.701 51,22.5 C51,26.631 50.667,28.677 50.187,30 C50.145,30.111 50.103,30.213 50.061,30.318 C50.454,30.954 50.922,31.596 51.456,32.253 C51.489,32.292 51.516,32.331 51.549,32.37 C52.11,33.048 52.749,33.747 53.499,34.482 C54.912,35.865 56.427,37.248 57.888,38.583 C58.878,39.486 59.868,40.389 60.843,41.307 C61.08,41.529 61.269,41.748 61.494,41.97 C66.126,36.942 69,30.426 69,24 C69,9 56.913,-7.10542736e-15 42,-7.10542736e-15 C27.087,-7.10542736e-15 15,9.375 15,24 C15,27.648 15.954,31.317 17.595,34.74 C17.487,33.123 17.676,30.501 18,28.875 Z" id="Path"/>
        </g>
    </g>
</svg>