<?xml version="1.0" encoding="UTF-8"?>
<svg width="684px" height="192px" viewBox="0 0 684 192" version="1.1" xmlns="http://www.w3.org/2000/svg" xmlns:xlink="http://www.w3.org/1999/xlink">
    <title>logo</title>
    <g id="Page-1" stroke="none" stroke-width="1" fill="none" fill-rule="evenodd">
        <g id="logo" fill-rule="nonzero">
            <g id="dd-logo">
                <path d="M99.75,84.003 C102.849,86.172 105,90 105,93 C105,96.75 104.25,99.375 101.625,102 C101.625,102 102,102.375 103.875,102.375 C114.375,102.375 117,96.543 117,94.5 C117,88.5 111,87 111,87 C112.875,86.955 114.654,87.102 116.418,87.555 C121.467,88.848 125.247,91.677 127.605,96.327 C128.523,98.139 128.973,99.945 128.997,101.709 C129.045,105.186 127.497,108.747 124.122,111.747 C118.575,116.682 108.375,117 108,117 C108.987,118.089 111.75,120.375 115.875,120.375 C117.75,120.375 120,120 120,120 C119.892,120.141 117.75,122.625 112.08,124.728 C109.752,125.505 107.394,125.964 105,126 C103.59,126.021 102.171,125.895 100.74,125.604 C95.022,124.446 91.095,121.098 88.632,115.986 C87.81,114.282 87,110.625 87,109.875 C85.146,111.687 84.069,113.886 84,116.25 C84.375,121.125 87.039,122.946 87,123 C86.568,122.823 78,121.125 78,109.125 C77.961,107.199 78.009,105.642 78,103.875 C77.985,100.782 76.575,98.205 74.154,96.21 C70.077,92.85 65.985,89.502 61.875,86.181 C59.07,83.913 57.321,81.123 57.282,77.478 C57.258,75.204 56.181,73.539 54.405,72.198 C53.289,71.355 52.158,70.515 51.147,69.558 C49.362,67.866 49.029,65.772 49.638,63.417 C49.743,63.504 49.83,63.54 49.842,63.594 C50.541,66.426 52.701,67.455 55.335,67.881 C56.748,68.109 58.188,68.208 59.583,68.505 C61.047,68.82 61.878,69.852 62.214,71.265 C62.421,72.138 62.586,73.023 62.79,73.896 C63.183,75.579 64.038,76.281 65.781,76.392 C66.927,76.464 68.076,76.521 69.219,76.635 C71.01,76.815 72.564,77.532 73.953,78.663 C78.795,82.605 83.661,86.52 88.506,90.456 C89.751,91.464 91.875,93 94.125,93 C96.75,93 100.125,91.125 100.125,87.375 C100.125,85.125 99.75,84.003 99.75,84.003 Z" id="Path" fill="#FFFFFF"/>
                <path d="M71.673,99.219 C68.256,96.402 64.821,93.603 61.38,90.813 C59.457,93.93 52.056,104.997 41.613,104.997 C36.435,104.997 31.695,101.958 29.25,97.221 C27.78,94.371 27,91.065 27,88.128 C27,75.378 35.025,68.403 35.217,68.154 C33.039,67.617 31.398,67.845 29.625,69.024 C27.831,70.218 24.588,72.255 24.351,72.381 C24,72.375 24,72.375 24,72 L25.125,64.5 C23.397,65.082 19.5,67.125 15,71.625 C12.75,73.875 10.929,75.873 10.929,75.873 C9.75,71.625 11.625,64.125 11.991,61.5 C12.207,59.97 11.616,59.9999148 11.616,59.9999148 C10.866,59.9999148 8.625,62.295 7.5,63.468 C4.023,67.086 1.815,71.22 0.57,76.092 C0.336,77.016 0.189,78.189 0,79.125 C0.072,79.149 1.875,76.5 3.375,76.5 C4.125,76.5 4.17,77.649 4.146,78.054 C4.107,78.681 3.894,79.308 3.696,79.917 C2.304,84.222 1.509,88.575 1.476,93 C1.461,95.028 1.608,97.068 1.929,99.126 C2.478,102.627 3.33,105.189 4.872,108.375 C7.05,112.875 10.971,116.811 11.247,117 C11.058,116.358 10.683,115.485 10.62,114.99 C10.494,114.033 10.299,113.049 10.404,112.104 C10.536,110.916 11.574,110.646 12.438,111.486 C12.825,111.864 17.073,115.881 19.578,117.519 C25.257,121.227 31.248,122.979 37.5,123.000453 C40.749,123.012 44.067,122.556 47.451,121.668 C52.347,120.381 56.667,117.999 60.519,114.783 C65.454,110.667 69.255,105.387 72.282,99.816 C72.084,99.615 71.907,99.411 71.673,99.219 Z M87.96,57.249 C81.984,61.191 76.998,67.74 72.645,73.341 C72.615,73.38 72.597,73.422 72.576,73.461 C73.929,73.953 75.219,74.661 76.416,75.636 C78.015,76.938 79.617,78.231 81.219,79.53 C81.348,79.269 81.468,79.032 81.573,78.813 C84.54,72.702 88.122,65.385 92.661,60.27 C97.095,55.272 104.88,53.727 110.658,56.517 C111.378,56.865 111.96,57.018 112.53,56.997 C113.112,56.976 113.682,56.778 114.375,56.418 C118.893,54.084 123.774,52.908 128.862,52.941 C129.864,52.95 132,53.25 132,53.25 C130.125,51.375 127.668,49.47 125.532,48.267 C121.557,46.032 117.471,45 113.25,45 C107.25,45 104.25,46.872 102.645,46.872 C102,46.872 101.685,46.698 101.463,46.404 C101.268,46.149 101.343,45.576 101.493,45.219 C102.375,43.5 104.802,42.135 105,42 C103.125,42 98.991,44.223 96.612,46.065 C95.013,47.301 93.426,48.552 91.815,49.773 C91.491,50.019 91.101,50.214 90.711,50.328 C89.652,50.637 89.112,50.115 89.424,49.086 C89.565,48.624 89.781,48.174 90.021,47.754 C90.408,47.073 90.846,46.419 91.296,45.705 C79.875,52.878 77.919,62.718 78,62.628 C81.354,58.98 85.146,56.133 89.625,54.003 C94.11,51.87 99,50.628 104.625,50.628 C104.625,50.628 105,50.931 105,51.003 C105,51.003 102.75,51.003 100.365,51.714 C95.862,52.749 91.776,54.729 87.96,57.249 Z" id="Shape" fill="#FFFFFF"/>
                <path d="M44.25,24.75 C44.25,26.25 44.646,27.741 45.075,28.989 C46.191,32.247 48.333,34.881 50.772,37.269 C53.178,39.624 55.719,41.844 58.173,44.151 C60.648,46.476 62.799,49.041 64.077,52.209 C64.8,54 65.157,55.857 64.875,57.783 C64.797,58.32 64.995,58.578 65.472,58.782 C66.69,59.301 67.464,60.162 67.53,61.527 C67.56,62.172 67.962,62.07 68.349,61.869 C70.497,60.753 71.484,59.064 71.622,58.878 C71.868,59.391 72.003,60.027 71.9973717,60.753 C71.961,64.791 68.382,71.418 65.013,72.738 C65.058,72.444 65.091,72.207 65.133,71.97 C65.607,69.306 64.281,67.122 61.674,66.252 C59.913,65.664 58.458,65.652 56.619,65.625 C56.337,65.622 55.548,65.625 55.119,65.625 C55.26,65.301 56.298,63.156 56.529,62.322 C56.859,61.137 56.427,60.291 55.212,60.024 C53.895,59.733 52.524,59.55 51.177,59.556 C48.081,59.571 45.012,59.943 42,60.672 C41.58,60.774 40.902,60.99 40.491,61.125 C43.116,61.125 46.491,62.25 46.491,62.25 C46.491,62.25 44.991,65.25 44.991,67.125 C44.991,68.625 45.741,69.75 46.491,69.75 C47.241,69.75 47.658,69.246 48,69 C47.931,69.408 47.517,71.565 47.46,72.579 C47.373,74.172 48,75 49.875,75 C50.25,75 50.625,75 51,75 C50.25,77.625 44.604,81.081 41.25,81 C41.028,80.994 40.821,80.973 40.626,80.934 C42,80.25 44.07,77.625 44.07,76.503 L39.594,77.073 C39.594,77.073 41.121,75.168 41.61,74.211 C42.879,71.736 43.02,69.207 41.34,66.843 C39.921,64.845 37.623,63.99 35.25,63.753 C31.5,63.753 29.55,64.803 29.25,64.878 C30.957,61.158 33.393,58.863 37.125,57.003 C34.125,55.503 31.125,55.128 31.125,55.128 C34.125,53.253 38.625,51.753 42,51.003 C41.625,51.003 40.689,51.015 40.5,51.003 C29.25,51.003 24.843,56.817 24.75,57.003 C26.565,57.315 27.75,57.378 30,58.128 C30,58.128 24,59.253 15,66.003 C15.06,65.664 16.125,63.378 16.125,61.128 C16.125,53.253 6.153,54.831 6,54.753 C6.243,54.534 8.25,52.878 14.589,49.818 C15.777,49.176 19.125,47.628 19.125,45.753 C19.125,43.128 13.92,39.303 13.5,39.003 C17.625,39.003 19.941,39.39 23.25,40.128 C21.486,37.116 20.994,33.978 21.792,30.864 C23.07,33.264 24.906,35.148 27.144,36.624 C29.202,37.983 31.371,39.18 33.477,40.47 C35.073,41.448 36.729,42.354 38.205,43.485 C39.339,44.355 40.236,45.528 41.229,46.569 C41.394,46.743 41.526,46.947 41.676,47.136 C41.763,47.094 41.847,47.052 41.934,47.01 C41.697,46.419 41.508,45.804 41.217,45.237 C40.038,42.942 38.295,41.103 36.138,39.681 C35.253,39.096 34.77,38.403 34.599,37.422 C34.086,34.515 34.074,31.665 34.632,28.872 C34.935,27.363 36.75,24 36.75,24 L36.75,24.375 C36.852,28.35 38.364,31.533 40.875,34.5 C43.509,37.611 46.956,39.915 49.926,42.69 C55.125,47.625 57.339,50.394 57.75,51 C57.75,51 57.597,50.358 57.504,50.151 C56.076,46.878 53.763,44.241 51.174,41.817 C48.924,39.711 46.638,37.638 44.349,35.571 C43.521,34.821 43.032,33.93 42.9,32.841 C42.375,28.5 44.211,24.777 44.25,24.75 Z M51,51 C51,51 51.24,52.491 51.597,53.229 C53.25,56.625 57,57 57,57 C57,57 57,54.375 53.25,51.75 C52.143,50.976 51,51 51,51 Z" id="Shape" fill="#169588"/>
                <path d="M18,28.875 C18.75,25.125 21,21 21,21 C21,21 22.389,25.719 24.75,28.875 C25.917,30.435 27.477,32.169 29.292,33.366 C29.634,33.591 29.979,33.813 30.33,34.032 C30.264,32.01 30.423,30.03 30.807,28.11 C31.134,26.475 32.283,24.126 32.997,22.758 L32.997,22.5 C33,16.701 37.029,12 42,12 C46.971,12 51,16.701 51,22.5 C51,26.631 50.667,28.677 50.187,30 C50.145,30.111 50.103,30.213 50.061,30.318 C50.454,30.954 50.922,31.596 51.456,32.253 C51.489,32.292 51.516,32.331 51.549,32.37 C52.11,33.048 52.749,33.747 53.499,34.482 C54.912,35.865 56.427,37.248 57.888,38.583 C58.878,39.486 59.868,40.389 60.843,41.307 C61.08,41.529 61.269,41.748 61.494,41.97 C66.126,36.942 69,30.426 69,24 C69,9 56.913,0 42,0 C27.087,0 15,9.375 15,24 C15,27.648 15.954,31.317 17.595,34.74 C17.487,33.123 17.676,30.501 18,28.875 Z" id="Path" fill="#FFFFFF"/>
            </g>
            <g id="Les-terres-très-anci" transform="translate(0.23, 28.94)" fill="#169588">
                <path d="M150.38,6.6 C148.473333,6.52666667 147.281667,6.325 146.805,5.995 C146.328333,5.665 146.09,5.31666667 146.09,4.95 C146.09,4.43666667 146.163333,3.97833333 146.31,3.575 C146.456667,3.17166667 146.86,2.93333333 147.52,2.86 C148.326667,2.93333333 149.555,3.06166667 151.205,3.245 C152.855,3.42833333 155.073333,3.59333333 157.86,3.74 L164.46,3.74 C167.686667,3.66666667 170.693333,3.48333333 173.48,3.19 C176.266667,2.89666667 178.76,2.56666667 180.96,2.2 C183.16,1.83333333 184.993333,1.46666667 186.46,1.1 C187.926667,0.733333333 188.953333,0.403333333 189.54,0.11 L189.65,0.11 C189.723333,0.11 189.778333,0.0916666667 189.815,0.055 C189.851667,0.0183333333 189.906667,0 189.98,0 C190.713333,0 191.08,0.77 191.08,2.31 C191.08,2.97 190.401667,3.52 189.045,3.96 C187.688333,4.4 186.13,4.785 184.37,5.115 C182.61,5.445 180.886667,5.75666667 179.2,6.05 C177.513333,6.34333333 176.376667,6.67333333 175.79,7.04 C175.35,7.77333333 174.965,9.77166667 174.635,13.035 C174.305,16.2983333 174.048333,20.1483333 173.865,24.585 C173.681667,29.0216667 173.535,33.7333333 173.425,38.72 C173.315,43.7066667 173.26,48.29 173.26,52.47 C173.26,59.2166667 173.351667,64.68 173.535,68.86 C173.718333,73.04 174.066667,75.3866667 174.58,75.9 C174.8,75.9733333 175.203333,76.01 175.79,76.01 C176.45,76.01 177.238333,75.955 178.155,75.845 C179.071667,75.735 180.006667,75.625 180.96,75.515 C181.913333,75.405 182.848333,75.2766667 183.765,75.13 C184.681667,74.9833333 185.47,74.8733333 186.13,74.8 C187.816667,74.58 189.631667,74.305 191.575,73.975 C193.518333,73.645 195.443333,73.2416667 197.35,72.765 C199.256667,72.2883333 201.035,71.6833333 202.685,70.95 C204.335,70.2166667 205.746667,69.3 206.92,68.2 C206.993333,68.0533333 207.048333,67.9983333 207.085,68.035 C207.121667,68.0716667 207.176667,68.0533333 207.25,67.98 C207.543333,67.6866667 207.873333,67.5766667 208.24,67.65 C208.606667,67.7233333 208.918333,67.925 209.175,68.255 C209.431667,68.585 209.596667,68.9516667 209.67,69.355 C209.743333,69.7583333 209.633333,70.07 209.34,70.29 C208.68,70.8033333 208.038333,71.5733333 207.415,72.6 C206.791667,73.6266667 206.223333,74.7266667 205.71,75.9 C205.196667,77.0733333 204.756667,78.1916667 204.39,79.255 C204.023333,80.3183333 203.803333,81.1066667 203.73,81.62 C204.316667,81.9866667 204.958333,82.5 205.655,83.16 C206.351667,83.82 206.7,84.6266667 206.7,85.58 C206.7,85.8733333 206.608333,86.2583333 206.425,86.735 C206.241667,87.2116667 205.856667,87.45 205.27,87.45 C205.123333,87.45 204.866667,87.4133333 204.5,87.34 C204.133333,87.2666667 203.95,86.9366667 203.95,86.35 C203.95,85.69 204.243333,85.2133333 204.83,84.92 C204.536667,84.7733333 204.133333,84.5166667 203.62,84.15 C203.106667,83.7833333 202.593333,83.5266667 202.08,83.38 C200.76,83.16 199.403333,82.94 198.01,82.72 C196.616667,82.5 195.095,82.335 193.445,82.225 C191.795,82.115 189.943333,82.0233333 187.89,81.95 C185.836667,81.8766667 183.526667,81.84 180.96,81.84 C175.02,81.84 169.978333,82.005 165.835,82.335 C161.691667,82.665 158.19,83.0133333 155.33,83.38 C152.47,83.7466667 150.123333,84.095 148.29,84.425 C146.456667,84.755 144.953333,84.92 143.78,84.92 C142.753333,84.92 142.24,84.48 142.24,83.6 C142.24,83.0866667 142.35,82.5366667 142.57,81.95 C142.79,81.3633333 143.303333,81.1066667 144.11,81.18 C144.99,81.2533333 146.145,81.2166667 147.575,81.07 C149.005,80.9233333 150.435,80.7033333 151.865,80.41 C153.295,80.1166667 154.541667,79.805 155.605,79.475 C156.668333,79.145 157.31,78.8333333 157.53,78.54 C157.823333,77.9533333 158.135,76.56 158.465,74.36 C158.795,72.16 159.07,69.3916667 159.29,66.055 C159.51,62.7183333 159.693333,58.9233333 159.84,54.67 C159.986667,50.4166667 160.06,45.9066667 160.06,41.14 C160.06,34.6866667 160.005,29.37 159.895,25.19 C159.785,21.01 159.656667,17.6733333 159.51,15.18 C159.363333,12.6866667 159.18,10.8533333 158.96,9.68 C158.74,8.50666667 158.52,7.62666667 158.3,7.04 L150.38,6.6 Z" id="Path"/>
                <path d="M267.1,69.19 C266.293333,70.07 265.046667,71.28 263.36,72.82 C261.673333,74.36 259.638333,75.9 257.255,77.44 C254.871667,78.98 252.213333,80.3 249.28,81.4 C246.346667,82.5 243.23,83.05 239.93,83.05 C236.923333,83.05 233.99,82.5916667 231.13,81.675 C228.27,80.7583333 225.703333,79.365 223.43,77.495 C221.156667,75.625 219.341667,73.2416667 217.985,70.345 C216.628333,67.4483333 215.95,63.9833333 215.95,59.95 C215.95,56.65 216.17,53.8083333 216.61,51.425 C217.05,49.0416667 217.636667,46.9516667 218.37,45.155 C219.103333,43.3583333 219.928333,41.8183333 220.845,40.535 C221.761667,39.2516667 222.696667,38.0966667 223.65,37.07 C224.823333,35.75 226.253333,34.5033333 227.94,33.33 C229.626667,32.1566667 231.441667,31.0933333 233.385,30.14 C235.328333,29.1866667 237.381667,28.435 239.545,27.885 C241.708333,27.335 243.89,27.06 246.09,27.06 C250.05,27.06 253.148333,27.72 255.385,29.04 C257.621667,30.36 258.74,32.1933333 258.74,34.54 C258.74,36.0066667 258.3,37.3633333 257.42,38.61 C258.153333,38.39 259.088333,38.0233333 260.225,37.51 C261.361667,36.9966667 262.516667,36.465 263.69,35.915 C264.863333,35.365 265.908333,34.87 266.825,34.43 C267.741667,33.99 268.346667,33.66 268.64,33.44 C268.786667,33.2933333 268.951667,33.2383333 269.135,33.275 C269.318333,33.3116667 269.41,33.44 269.41,33.66 C269.41,34.6133333 269.226667,35.4016667 268.86,36.025 C268.493333,36.6483333 268.053333,37.1433333 267.54,37.51 C266.366667,38.2433333 264.68,39.16 262.48,40.26 C260.28,41.36 257.841667,42.515 255.165,43.725 C252.488333,44.935 249.72,46.145 246.86,47.355 C244,48.565 241.305,49.72 238.775,50.82 C236.245,51.92 234.045,52.8916667 232.175,53.735 C230.305,54.5783333 229.04,55.1833333 228.38,55.55 C228.38,58.0433333 228.875,60.3716667 229.865,62.535 C230.855,64.6983333 232.23,66.5866667 233.99,68.2 C235.75,69.8133333 237.858333,71.0783333 240.315,71.995 C242.771667,72.9116667 245.466667,73.37 248.4,73.37 C251.04,73.37 253.423333,73.095 255.55,72.545 C257.676667,71.995 259.473333,71.3716667 260.94,70.675 C262.406667,69.9783333 263.561667,69.355 264.405,68.805 C265.248333,68.255 265.706667,67.98 265.78,67.98 C266.073333,67.98 266.366667,68.1083333 266.66,68.365 C266.953333,68.6216667 267.1,68.8966667 267.1,69.19 Z M228.38,52.36 C229.626667,51.92 231.038333,51.3883333 232.615,50.765 C234.191667,50.1416667 235.731667,49.4633333 237.235,48.73 C238.738333,47.9966667 240.113333,47.3 241.36,46.64 C242.606667,45.98 243.56,45.3933333 244.22,44.88 C245.54,43.9266667 246.2,42.3133333 246.2,40.04 C246.2,39.16 246.035,38.2433333 245.705,37.29 C245.375,36.3366667 244.88,35.475 244.22,34.705 C243.56,33.935 242.753333,33.3116667 241.8,32.835 C240.846667,32.3583333 239.783333,32.12 238.61,32.12 C237.583333,32.12 236.483333,32.4683333 235.31,33.165 C234.136667,33.8616667 233.036667,34.9983333 232.01,36.575 C230.983333,38.1516667 230.121667,40.2416667 229.425,42.845 C228.728333,45.4483333 228.38,48.62 228.38,52.36 Z" id="Shape"/>
                <path d="M271.95,79.31 C271.363333,79.6766667 270.813333,80.2816667 270.3,81.125 C269.786667,81.9683333 269.456667,82.61 269.31,83.05 C269.236667,83.1966667 269.035,83.325 268.705,83.435 C268.375,83.545 268.136667,83.6 267.99,83.6 C267.33,83.6 267,83.27 267,82.61 C267,82.39 267.293333,81.8033333 267.88,80.85 C268.32,80.1166667 269.016667,78.9616667 269.97,77.385 C270.923333,75.8083333 271.895,74.195 272.885,72.545 C273.875,70.895 274.791667,69.3916667 275.635,68.035 C276.478333,66.6783333 277.083333,65.78 277.45,65.34 C277.816667,64.9733333 278.256667,64.9183333 278.77,65.175 C279.283333,65.4316667 279.43,65.7433333 279.21,66.11 C279.063333,66.2566667 278.953333,66.44 278.88,66.66 C278.806667,66.88 278.77,67.2466667 278.77,67.76 C278.77,68.42 279.338333,69.245 280.475,70.235 C281.611667,71.225 283.06,72.1783333 284.82,73.095 C286.58,74.0116667 288.523333,74.8 290.65,75.46 C292.776667,76.12 294.866667,76.45 296.92,76.45 C299.34,76.45 301.265,75.7533333 302.695,74.36 C304.125,72.9666667 304.84,71.1333333 304.84,68.86 C304.84,66.2933333 304.033333,64.3866667 302.42,63.14 C300.806667,61.8933333 298.808333,60.94 296.425,60.28 C294.041667,59.62 291.438333,59.0883333 288.615,58.685 C285.791667,58.2816667 283.188333,57.6766667 280.805,56.87 C278.421667,56.0633333 276.423333,54.89 274.81,53.35 C273.196667,51.81 272.39,49.5733333 272.39,46.64 C272.39,44.3666667 273.178333,42.0566667 274.755,39.71 C276.331667,37.3633333 278.421667,35.2733333 281.025,33.44 C283.628333,31.6066667 286.616667,30.1033333 289.99,28.93 C293.363333,27.7566667 296.883333,27.17 300.55,27.17 C301.65,27.17 302.933333,27.28 304.4,27.5 C305.866667,27.72 307.315,27.995 308.745,28.325 C310.175,28.655 311.495,28.985 312.705,29.315 C313.915,29.645 314.813333,29.92 315.4,30.14 C315.546667,30.14 315.51,30.4333333 315.29,31.02 C315.07,31.68 314.52,32.6883333 313.64,34.045 C312.76,35.4016667 311.788333,36.74 310.725,38.06 C309.661667,39.38 308.671667,40.5533333 307.755,41.58 C306.838333,42.6066667 306.196667,43.12 305.83,43.12 C305.756667,43.12 305.536667,43.12 305.17,43.12 C304.803333,43.12 304.546667,43.0466667 304.4,42.9 C304.473333,42.5333333 304.51,42.0566667 304.51,41.47 C304.51,38.9033333 303.355,36.8866667 301.045,35.42 C298.735,33.9533333 295.38,33.22 290.98,33.22 C288.853333,33.22 287.111667,33.8433333 285.755,35.09 C284.398333,36.3366667 283.72,37.84 283.72,39.6 C283.72,42.46 284.526667,44.5866667 286.14,45.98 C287.753333,47.3733333 289.77,48.4183333 292.19,49.115 C294.61,49.8116667 297.213333,50.3433333 300,50.71 C302.786667,51.0766667 305.39,51.645 307.81,52.415 C310.23,53.185 312.246667,54.34 313.86,55.88 C315.473333,57.42 316.28,59.73 316.28,62.81 C316.28,64.2033333 315.986667,65.56 315.4,66.88 C314.813333,68.2 314.043333,69.4466667 313.09,70.62 C312.136667,71.7933333 311.073333,72.875 309.9,73.865 C308.726667,74.855 307.553333,75.7166667 306.38,76.45 C305.28,77.1833333 304.033333,77.935 302.64,78.705 C301.246667,79.475 299.743333,80.19 298.13,80.85 C296.516667,81.51 294.866667,82.0416667 293.18,82.445 C291.493333,82.8483333 289.806667,83.05 288.12,83.05 C287.313333,83.05 286.03,82.885 284.27,82.555 C282.51,82.225 280.731667,81.84 278.935,81.4 C277.138333,80.96 275.543333,80.5383333 274.15,80.135 C272.756667,79.7316667 272.023333,79.4566667 271.95,79.31 Z" id="Path"/>
                <path d="M408.15,66.77 C408.296667,66.6233333 408.425,66.6416667 408.535,66.825 C408.645,67.0083333 408.718333,67.265 408.755,67.595 C408.791667,67.925 408.773333,68.2733333 408.7,68.64 C408.626667,69.0066667 408.48,69.3 408.26,69.52 C406.793333,70.9133333 404.96,72.38 402.76,73.92 C400.56,75.46 398.286667,76.89 395.94,78.21 C395.28,78.5766667 394.363333,79.0533333 393.19,79.64 C392.016667,80.2266667 390.715,80.795 389.285,81.345 C387.855,81.895 386.388333,82.3716667 384.885,82.775 C383.381667,83.1783333 381.97,83.38 380.65,83.38 C378.01,83.38 375.516667,82.8666667 373.17,81.84 C370.823333,80.8133333 368.77,79.4016667 367.01,77.605 C365.25,75.8083333 363.875,73.6633333 362.885,71.17 C361.895,68.6766667 361.4,65.9633333 361.4,63.03 C361.4,59.8766667 361.84,56.9066667 362.72,54.12 C363.6,51.3333333 364.608333,48.84 365.745,46.64 C366.881667,44.44 367.963333,42.5883333 368.99,41.085 C370.016667,39.5816667 370.713333,38.4633333 371.08,37.73 C369.686667,37.6566667 368.421667,37.6016667 367.285,37.565 C366.148333,37.5283333 365.066667,37.51 364.04,37.51 C361.693333,37.51 359.713333,37.5283333 358.1,37.565 C356.486667,37.6016667 355.056667,37.7666667 353.81,38.06 C353.223333,38.2066667 352.673333,38.5 352.16,38.94 C351.646667,39.38 351.206667,39.71 350.84,39.93 C350.693333,39.7833333 350.491667,39.5816667 350.235,39.325 C349.978333,39.0683333 349.85,38.7933333 349.85,38.5 C349.85,38.3533333 349.886667,38.2433333 349.96,38.17 C349.96,38.0966667 350.436667,37.675 351.39,36.905 C352.343333,36.135 353.535,35.2183333 354.965,34.155 C356.395,33.0916667 357.971667,31.9183333 359.695,30.635 C361.418333,29.3516667 363.068333,28.16 364.645,27.06 C366.221667,25.96 367.578333,25.025 368.715,24.255 C369.851667,23.485 370.603333,23.0266667 370.97,22.88 C371.41,22.7333333 371.85,22.8066667 372.29,23.1 C372.73,23.3933333 372.876667,23.6133333 372.73,23.76 C372.51,23.9066667 372.18,24.1816667 371.74,24.585 C371.3,24.9883333 371.153333,25.3366667 371.3,25.63 C372.106667,26.29 373.5,26.8766667 375.48,27.39 C377.46,27.9033333 379.696667,28.325 382.19,28.655 C384.683333,28.985 387.25,29.2416667 389.89,29.425 C392.53,29.6083333 394.913333,29.7 397.04,29.7 C400.193333,29.7 402.723333,29.6083333 404.63,29.425 C406.536667,29.2416667 408.113333,29.0033333 409.36,28.71 C410.533333,28.4166667 411.303333,28.1966667 411.67,28.05 C411.743333,28.05 411.89,28.16 412.11,28.38 C412.33,28.6 412.44,28.8566667 412.44,29.15 C412.44,29.2966667 411.908333,29.6633333 410.845,30.25 C409.781667,30.8366667 408.7,31.46 407.6,32.12 C406.94,32.4866667 406.151667,32.9633333 405.235,33.55 C404.318333,34.1366667 403.328333,34.705 402.265,35.255 C401.201667,35.805 400.083333,36.3 398.91,36.74 C397.736667,37.18 396.6,37.4366667 395.5,37.51 C394.4,37.6566667 393.116667,37.7666667 391.65,37.84 C390.183333,37.9133333 388.643333,37.9683333 387.03,38.005 C385.416667,38.0416667 383.785,38.0783333 382.135,38.115 C380.485,38.1516667 378.963333,38.17 377.57,38.17 C377.35,38.5366667 377.001667,39.1416667 376.525,39.985 C376.048333,40.8283333 375.59,41.91 375.15,43.23 C374.71,44.55 374.306667,46.0533333 373.94,47.74 C373.573333,49.4266667 373.39,51.26 373.39,53.24 C373.39,56.2466667 373.848333,59.015 374.765,61.545 C375.681667,64.075 376.965,66.2566667 378.615,68.09 C380.265,69.9233333 382.226667,71.3533333 384.5,72.38 C386.773333,73.4066667 389.23,73.92 391.87,73.92 C393.41,73.92 394.895,73.7366667 396.325,73.37 C397.755,73.0033333 399.111667,72.5266667 400.395,71.94 C401.678333,71.3533333 402.87,70.7116667 403.97,70.015 C405.07,69.3183333 406.023333,68.64 406.83,67.98 L408.15,66.77 Z" id="Path"/>
                <path d="M463.16,69.19 C462.353333,70.07 461.106667,71.28 459.42,72.82 C457.733333,74.36 455.698333,75.9 453.315,77.44 C450.931667,78.98 448.273333,80.3 445.34,81.4 C442.406667,82.5 439.29,83.05 435.99,83.05 C432.983333,83.05 430.05,82.5916667 427.19,81.675 C424.33,80.7583333 421.763333,79.365 419.49,77.495 C417.216667,75.625 415.401667,73.2416667 414.045,70.345 C412.688333,67.4483333 412.01,63.9833333 412.01,59.95 C412.01,56.65 412.23,53.8083333 412.67,51.425 C413.11,49.0416667 413.696667,46.9516667 414.43,45.155 C415.163333,43.3583333 415.988333,41.8183333 416.905,40.535 C417.821667,39.2516667 418.756667,38.0966667 419.71,37.07 C420.883333,35.75 422.313333,34.5033333 424,33.33 C425.686667,32.1566667 427.501667,31.0933333 429.445,30.14 C431.388333,29.1866667 433.441667,28.435 435.605,27.885 C437.768333,27.335 439.95,27.06 442.15,27.06 C446.11,27.06 449.208333,27.72 451.445,29.04 C453.681667,30.36 454.8,32.1933333 454.8,34.54 C454.8,36.0066667 454.36,37.3633333 453.48,38.61 C454.213333,38.39 455.148333,38.0233333 456.285,37.51 C457.421667,36.9966667 458.576667,36.465 459.75,35.915 C460.923333,35.365 461.968333,34.87 462.885,34.43 C463.801667,33.99 464.406667,33.66 464.7,33.44 C464.846667,33.2933333 465.011667,33.2383333 465.195,33.275 C465.378333,33.3116667 465.47,33.44 465.47,33.66 C465.47,34.6133333 465.286667,35.4016667 464.92,36.025 C464.553333,36.6483333 464.113333,37.1433333 463.6,37.51 C462.426667,38.2433333 460.74,39.16 458.54,40.26 C456.34,41.36 453.901667,42.515 451.225,43.725 C448.548333,44.935 445.78,46.145 442.92,47.355 C440.06,48.565 437.365,49.72 434.835,50.82 C432.305,51.92 430.105,52.8916667 428.235,53.735 C426.365,54.5783333 425.1,55.1833333 424.44,55.55 C424.44,58.0433333 424.935,60.3716667 425.925,62.535 C426.915,64.6983333 428.29,66.5866667 430.05,68.2 C431.81,69.8133333 433.918333,71.0783333 436.375,71.995 C438.831667,72.9116667 441.526667,73.37 444.46,73.37 C447.1,73.37 449.483333,73.095 451.61,72.545 C453.736667,71.995 455.533333,71.3716667 457,70.675 C458.466667,69.9783333 459.621667,69.355 460.465,68.805 C461.308333,68.255 461.766667,67.98 461.84,67.98 C462.133333,67.98 462.426667,68.1083333 462.72,68.365 C463.013333,68.6216667 463.16,68.8966667 463.16,69.19 Z M424.44,52.36 C425.686667,51.92 427.098333,51.3883333 428.675,50.765 C430.251667,50.1416667 431.791667,49.4633333 433.295,48.73 C434.798333,47.9966667 436.173333,47.3 437.42,46.64 C438.666667,45.98 439.62,45.3933333 440.28,44.88 C441.6,43.9266667 442.26,42.3133333 442.26,40.04 C442.26,39.16 442.095,38.2433333 441.765,37.29 C441.435,36.3366667 440.94,35.475 440.28,34.705 C439.62,33.935 438.813333,33.3116667 437.86,32.835 C436.906667,32.3583333 435.843333,32.12 434.67,32.12 C433.643333,32.12 432.543333,32.4683333 431.37,33.165 C430.196667,33.8616667 429.096667,34.9983333 428.07,36.575 C427.043333,38.1516667 426.181667,40.2416667 425.485,42.845 C424.788333,45.4483333 424.44,48.62 424.44,52.36 Z" id="Shape"/>
                <path d="M518.5,35.31 C517.693333,35.97 516.74,36.795 515.64,37.785 C514.54,38.775 513.385,39.7283333 512.175,40.645 C510.965,41.5616667 509.736667,42.35 508.49,43.01 C507.243333,43.67 506.033333,44 504.86,44 C503.833333,44 502.916667,43.7616667 502.11,43.285 C501.303333,42.8083333 500.551667,42.295 499.855,41.745 C499.158333,41.195 498.48,40.6816667 497.82,40.205 C497.16,39.7283333 496.463333,39.49 495.73,39.49 C493.75,39.49 492.081667,40.2966667 490.725,41.91 C489.368333,43.5233333 488.268333,45.5766667 487.425,48.07 C486.581667,50.5633333 485.958333,53.2766667 485.555,56.21 C485.151667,59.1433333 484.95,61.9666667 484.95,64.68 C484.95,66.9533333 485.041667,68.805 485.225,70.235 C485.408333,71.665 485.683333,72.8016667 486.05,73.645 C486.416667,74.4883333 486.911667,75.0566667 487.535,75.35 C488.158333,75.6433333 488.91,75.79 489.79,75.79 C490.743333,75.79 491.77,75.6433333 492.87,75.35 C493.09,75.2766667 493.255,75.4233333 493.365,75.79 C493.475,76.1566667 493.53,76.45 493.53,76.67 C493.53,76.8166667 493.42,76.9816667 493.2,77.165 C492.98,77.3483333 492.833333,77.44 492.76,77.44 C491.146667,78.1 489.496667,78.815 487.81,79.585 C486.123333,80.355 484.73,80.9966667 483.63,81.51 C482.603333,81.95 481.375,82.4266667 479.945,82.94 C478.515,83.4533333 477.286667,83.71 476.26,83.71 C475.086667,83.71 474.115,83.5266667 473.345,83.16 C472.575,82.7933333 472.19,82.4266667 472.19,82.06 C472.19,81.6933333 472.281667,81.3633333 472.465,81.07 C472.648333,80.7766667 472.813333,80.2266667 472.96,79.42 C473.106667,78.32 473.271667,77.0183333 473.455,75.515 C473.638333,74.0116667 473.821667,72.38 474.005,70.62 C474.188333,68.86 474.335,67.045 474.445,65.175 C474.555,63.305 474.61,61.4533333 474.61,59.62 C474.61,55.5133333 474.481667,52.03 474.225,49.17 C473.968333,46.31 473.51,44 472.85,42.24 C472.19,40.48 471.291667,39.215 470.155,38.445 C469.018333,37.675 467.57,37.29 465.81,37.29 C465.443333,37.29 465.113333,37.29 464.82,37.29 C464.526667,37.29 464.233333,37.3266667 463.94,37.4 C463.5,37.4 463.28,37.18 463.28,36.74 C463.28,36.3 463.5,35.97 463.94,35.75 C464.746667,35.2366667 465.993333,34.485 467.68,33.495 C469.366667,32.505 471.108333,31.5516667 472.905,30.635 C474.701667,29.7183333 476.443333,28.8933333 478.13,28.16 C479.816667,27.4266667 481.063333,27.06 481.87,27.06 C482.823333,27.06 483.63,27.3716667 484.29,27.995 C484.95,28.6183333 485.445,29.4066667 485.775,30.36 C486.105,31.3133333 486.343333,32.395 486.49,33.605 C486.636667,34.815 486.71,36.0066667 486.71,37.18 C486.71,38.06 486.691667,38.9766667 486.655,39.93 C486.618333,40.8833333 486.6,41.91 486.6,43.01 C489.9,38.17 492.87,34.4116667 495.51,31.735 C498.15,29.0583333 500.643333,27.72 502.99,27.72 C503.87,27.72 504.731667,28.0866667 505.575,28.82 C506.418333,29.5533333 507.316667,30.3783333 508.27,31.295 C509.223333,32.2116667 510.213333,33.0366667 511.24,33.77 C512.266667,34.5033333 513.33,34.87 514.43,34.87 C515.383333,34.87 516.08,34.76 516.52,34.54 C516.96,34.32 517.326667,34.1366667 517.62,33.99 C518.206667,33.99 518.5,34.3933333 518.5,35.2 L518.5,35.31 Z" id="Path"/>
                <path d="M571.75,35.31 C570.943333,35.97 569.99,36.795 568.89,37.785 C567.79,38.775 566.635,39.7283333 565.425,40.645 C564.215,41.5616667 562.986667,42.35 561.74,43.01 C560.493333,43.67 559.283333,44 558.11,44 C557.083333,44 556.166667,43.7616667 555.36,43.285 C554.553333,42.8083333 553.801667,42.295 553.105,41.745 C552.408333,41.195 551.73,40.6816667 551.07,40.205 C550.41,39.7283333 549.713333,39.49 548.98,39.49 C547,39.49 545.331667,40.2966667 543.975,41.91 C542.618333,43.5233333 541.518333,45.5766667 540.675,48.07 C539.831667,50.5633333 539.208333,53.2766667 538.805,56.21 C538.401667,59.1433333 538.2,61.9666667 538.2,64.68 C538.2,66.9533333 538.291667,68.805 538.475,70.235 C538.658333,71.665 538.933333,72.8016667 539.3,73.645 C539.666667,74.4883333 540.161667,75.0566667 540.785,75.35 C541.408333,75.6433333 542.16,75.79 543.04,75.79 C543.993333,75.79 545.02,75.6433333 546.12,75.35 C546.34,75.2766667 546.505,75.4233333 546.615,75.79 C546.725,76.1566667 546.78,76.45 546.78,76.67 C546.78,76.8166667 546.67,76.9816667 546.45,77.165 C546.23,77.3483333 546.083333,77.44 546.01,77.44 C544.396667,78.1 542.746667,78.815 541.06,79.585 C539.373333,80.355 537.98,80.9966667 536.88,81.51 C535.853333,81.95 534.625,82.4266667 533.195,82.94 C531.765,83.4533333 530.536667,83.71 529.51,83.71 C528.336667,83.71 527.365,83.5266667 526.595,83.16 C525.825,82.7933333 525.44,82.4266667 525.44,82.06 C525.44,81.6933333 525.531667,81.3633333 525.715,81.07 C525.898333,80.7766667 526.063333,80.2266667 526.21,79.42 C526.356667,78.32 526.521667,77.0183333 526.705,75.515 C526.888333,74.0116667 527.071667,72.38 527.255,70.62 C527.438333,68.86 527.585,67.045 527.695,65.175 C527.805,63.305 527.86,61.4533333 527.86,59.62 C527.86,55.5133333 527.731667,52.03 527.475,49.17 C527.218333,46.31 526.76,44 526.1,42.24 C525.44,40.48 524.541667,39.215 523.405,38.445 C522.268333,37.675 520.82,37.29 519.06,37.29 C518.693333,37.29 518.363333,37.29 518.07,37.29 C517.776667,37.29 517.483333,37.3266667 517.19,37.4 C516.75,37.4 516.53,37.18 516.53,36.74 C516.53,36.3 516.75,35.97 517.19,35.75 C517.996667,35.2366667 519.243333,34.485 520.93,33.495 C522.616667,32.505 524.358333,31.5516667 526.155,30.635 C527.951667,29.7183333 529.693333,28.8933333 531.38,28.16 C533.066667,27.4266667 534.313333,27.06 535.12,27.06 C536.073333,27.06 536.88,27.3716667 537.54,27.995 C538.2,28.6183333 538.695,29.4066667 539.025,30.36 C539.355,31.3133333 539.593333,32.395 539.74,33.605 C539.886667,34.815 539.96,36.0066667 539.96,37.18 C539.96,38.06 539.941667,38.9766667 539.905,39.93 C539.868333,40.8833333 539.85,41.91 539.85,43.01 C543.15,38.17 546.12,34.4116667 548.76,31.735 C551.4,29.0583333 553.893333,27.72 556.24,27.72 C557.12,27.72 557.981667,28.0866667 558.825,28.82 C559.668333,29.5533333 560.566667,30.3783333 561.52,31.295 C562.473333,32.2116667 563.463333,33.0366667 564.49,33.77 C565.516667,34.5033333 566.58,34.87 567.68,34.87 C568.633333,34.87 569.33,34.76 569.77,34.54 C570.21,34.32 570.576667,34.1366667 570.87,33.99 C571.456667,33.99 571.75,34.3933333 571.75,35.2 L571.75,35.31 Z" id="Path"/>
                <path d="M620.71,69.19 C619.903333,70.07 618.656667,71.28 616.97,72.82 C615.283333,74.36 613.248333,75.9 610.865,77.44 C608.481667,78.98 605.823333,80.3 602.89,81.4 C599.956667,82.5 596.84,83.05 593.54,83.05 C590.533333,83.05 587.6,82.5916667 584.74,81.675 C581.88,80.7583333 579.313333,79.365 577.04,77.495 C574.766667,75.625 572.951667,73.2416667 571.595,70.345 C570.238333,67.4483333 569.56,63.9833333 569.56,59.95 C569.56,56.65 569.78,53.8083333 570.22,51.425 C570.66,49.0416667 571.246667,46.9516667 571.98,45.155 C572.713333,43.3583333 573.538333,41.8183333 574.455,40.535 C575.371667,39.2516667 576.306667,38.0966667 577.26,37.07 C578.433333,35.75 579.863333,34.5033333 581.55,33.33 C583.236667,32.1566667 585.051667,31.0933333 586.995,30.14 C588.938333,29.1866667 590.991667,28.435 593.155,27.885 C595.318333,27.335 597.5,27.06 599.7,27.06 C603.66,27.06 606.758333,27.72 608.995,29.04 C611.231667,30.36 612.35,32.1933333 612.35,34.54 C612.35,36.0066667 611.91,37.3633333 611.03,38.61 C611.763333,38.39 612.698333,38.0233333 613.835,37.51 C614.971667,36.9966667 616.126667,36.465 617.3,35.915 C618.473333,35.365 619.518333,34.87 620.435,34.43 C621.351667,33.99 621.956667,33.66 622.25,33.44 C622.396667,33.2933333 622.561667,33.2383333 622.745,33.275 C622.928333,33.3116667 623.02,33.44 623.02,33.66 C623.02,34.6133333 622.836667,35.4016667 622.47,36.025 C622.103333,36.6483333 621.663333,37.1433333 621.15,37.51 C619.976667,38.2433333 618.29,39.16 616.09,40.26 C613.89,41.36 611.451667,42.515 608.775,43.725 C606.098333,44.935 603.33,46.145 600.47,47.355 C597.61,48.565 594.915,49.72 592.385,50.82 C589.855,51.92 587.655,52.8916667 585.785,53.735 C583.915,54.5783333 582.65,55.1833333 581.99,55.55 C581.99,58.0433333 582.485,60.3716667 583.475,62.535 C584.465,64.6983333 585.84,66.5866667 587.6,68.2 C589.36,69.8133333 591.468333,71.0783333 593.925,71.995 C596.381667,72.9116667 599.076667,73.37 602.01,73.37 C604.65,73.37 607.033333,73.095 609.16,72.545 C611.286667,71.995 613.083333,71.3716667 614.55,70.675 C616.016667,69.9783333 617.171667,69.355 618.015,68.805 C618.858333,68.255 619.316667,67.98 619.39,67.98 C619.683333,67.98 619.976667,68.1083333 620.27,68.365 C620.563333,68.6216667 620.71,68.8966667 620.71,69.19 Z M581.99,52.36 C583.236667,51.92 584.648333,51.3883333 586.225,50.765 C587.801667,50.1416667 589.341667,49.4633333 590.845,48.73 C592.348333,47.9966667 593.723333,47.3 594.97,46.64 C596.216667,45.98 597.17,45.3933333 597.83,44.88 C599.15,43.9266667 599.81,42.3133333 599.81,40.04 C599.81,39.16 599.645,38.2433333 599.315,37.29 C598.985,36.3366667 598.49,35.475 597.83,34.705 C597.17,33.935 596.363333,33.3116667 595.41,32.835 C594.456667,32.3583333 593.393333,32.12 592.22,32.12 C591.193333,32.12 590.093333,32.4683333 588.92,33.165 C587.746667,33.8616667 586.646667,34.9983333 585.62,36.575 C584.593333,38.1516667 583.731667,40.2416667 583.035,42.845 C582.338333,45.4483333 581.99,48.62 581.99,52.36 Z" id="Shape"/>
                <path d="M625.56,79.31 C624.973333,79.6766667 624.423333,80.2816667 623.91,81.125 C623.396667,81.9683333 623.066667,82.61 622.92,83.05 C622.846667,83.1966667 622.645,83.325 622.315,83.435 C621.985,83.545 621.746667,83.6 621.6,83.6 C620.94,83.6 620.61,83.27 620.61,82.61 C620.61,82.39 620.903333,81.8033333 621.49,80.85 C621.93,80.1166667 622.626667,78.9616667 623.58,77.385 C624.533333,75.8083333 625.505,74.195 626.495,72.545 C627.485,70.895 628.401667,69.3916667 629.245,68.035 C630.088333,66.6783333 630.693333,65.78 631.06,65.34 C631.426667,64.9733333 631.866667,64.9183333 632.38,65.175 C632.893333,65.4316667 633.04,65.7433333 632.82,66.11 C632.673333,66.2566667 632.563333,66.44 632.49,66.66 C632.416667,66.88 632.38,67.2466667 632.38,67.76 C632.38,68.42 632.948333,69.245 634.085,70.235 C635.221667,71.225 636.67,72.1783333 638.43,73.095 C640.19,74.0116667 642.133333,74.8 644.26,75.46 C646.386667,76.12 648.476667,76.45 650.53,76.45 C652.95,76.45 654.875,75.7533333 656.305,74.36 C657.735,72.9666667 658.45,71.1333333 658.45,68.86 C658.45,66.2933333 657.643333,64.3866667 656.03,63.14 C654.416667,61.8933333 652.418333,60.94 650.035,60.28 C647.651667,59.62 645.048333,59.0883333 642.225,58.685 C639.401667,58.2816667 636.798333,57.6766667 634.415,56.87 C632.031667,56.0633333 630.033333,54.89 628.42,53.35 C626.806667,51.81 626,49.5733333 626,46.64 C626,44.3666667 626.788333,42.0566667 628.365,39.71 C629.941667,37.3633333 632.031667,35.2733333 634.635,33.44 C637.238333,31.6066667 640.226667,30.1033333 643.6,28.93 C646.973333,27.7566667 650.493333,27.17 654.16,27.17 C655.26,27.17 656.543333,27.28 658.01,27.5 C659.476667,27.72 660.925,27.995 662.355,28.325 C663.785,28.655 665.105,28.985 666.315,29.315 C667.525,29.645 668.423333,29.92 669.01,30.14 C669.156667,30.14 669.12,30.4333333 668.9,31.02 C668.68,31.68 668.13,32.6883333 667.25,34.045 C666.37,35.4016667 665.398333,36.74 664.335,38.06 C663.271667,39.38 662.281667,40.5533333 661.365,41.58 C660.448333,42.6066667 659.806667,43.12 659.44,43.12 C659.366667,43.12 659.146667,43.12 658.78,43.12 C658.413333,43.12 658.156667,43.0466667 658.01,42.9 C658.083333,42.5333333 658.12,42.0566667 658.12,41.47 C658.12,38.9033333 656.965,36.8866667 654.655,35.42 C652.345,33.9533333 648.99,33.22 644.59,33.22 C642.463333,33.22 640.721667,33.8433333 639.365,35.09 C638.008333,36.3366667 637.33,37.84 637.33,39.6 C637.33,42.46 638.136667,44.5866667 639.75,45.98 C641.363333,47.3733333 643.38,48.4183333 645.8,49.115 C648.22,49.8116667 650.823333,50.3433333 653.61,50.71 C656.396667,51.0766667 659,51.645 661.42,52.415 C663.84,53.185 665.856667,54.34 667.47,55.88 C669.083333,57.42 669.89,59.73 669.89,62.81 C669.89,64.2033333 669.596667,65.56 669.01,66.88 C668.423333,68.2 667.653333,69.4466667 666.7,70.62 C665.746667,71.7933333 664.683333,72.875 663.51,73.865 C662.336667,74.855 661.163333,75.7166667 659.99,76.45 C658.89,77.1833333 657.643333,77.935 656.25,78.705 C654.856667,79.475 653.353333,80.19 651.74,80.85 C650.126667,81.51 648.476667,82.0416667 646.79,82.445 C645.103333,82.8483333 643.416667,83.05 641.73,83.05 C640.923333,83.05 639.64,82.885 637.88,82.555 C636.12,82.225 634.341667,81.84 632.545,81.4 C630.748333,80.96 629.153333,80.5383333 627.76,80.135 C626.366667,79.7316667 625.633333,79.4566667 625.56,79.31 Z" id="Path"/>
                <path d="M58.3,145.77 C58.4466667,145.623333 58.575,145.641667 58.685,145.825 C58.795,146.008333 58.8683333,146.265 58.905,146.595 C58.9416667,146.925 58.9233333,147.273333 58.85,147.64 C58.7766667,148.006667 58.63,148.3 58.41,148.52 C56.9433333,149.913333 55.11,151.38 52.91,152.92 C50.71,154.46 48.4366667,155.89 46.09,157.21 C45.43,157.576667 44.5133333,158.053333 43.34,158.64 C42.1666667,159.226667 40.865,159.795 39.435,160.345 C38.005,160.895 36.5383333,161.371667 35.035,161.775 C33.5316667,162.178333 32.12,162.38 30.8,162.38 C28.16,162.38 25.6666667,161.866667 23.32,160.84 C20.9733333,159.813333 18.92,158.401667 17.16,156.605 C15.4,154.808333 14.025,152.663333 13.035,150.17 C12.045,147.676667 11.55,144.963333 11.55,142.03 C11.55,138.876667 11.99,135.906667 12.87,133.12 C13.75,130.333333 14.7583333,127.84 15.895,125.64 C17.0316667,123.44 18.1133333,121.588333 19.14,120.085 C20.1666667,118.581667 20.8633333,117.463333 21.23,116.73 C19.8366667,116.656667 18.5716667,116.601667 17.435,116.565 C16.2983333,116.528333 15.2166667,116.51 14.19,116.51 C11.8433333,116.51 9.86333333,116.528333 8.25,116.565 C6.63666667,116.601667 5.20666667,116.766667 3.96,117.06 C3.37333333,117.206667 2.82333333,117.5 2.31,117.94 C1.79666667,118.38 1.35666667,118.71 0.99,118.93 C0.843333333,118.783333 0.641666667,118.581667 0.385,118.325 C0.128333333,118.068333 -5.68434189e-14,117.793333 -5.68434189e-14,117.5 C-5.68434189e-14,117.353333 0.0366666667,117.243333 0.11,117.17 C0.11,117.096667 0.586666667,116.675 1.54,115.905 C2.49333333,115.135 3.685,114.218333 5.115,113.155 C6.545,112.091667 8.12166667,110.918333 9.845,109.635 C11.5683333,108.351667 13.2183333,107.16 14.795,106.06 C16.3716667,104.96 17.7283333,104.025 18.865,103.255 C20.0016667,102.485 20.7533333,102.026667 21.12,101.88 C21.56,101.733333 22,101.806667 22.44,102.1 C22.88,102.393333 23.0266667,102.613333 22.88,102.76 C22.66,102.906667 22.33,103.181667 21.89,103.585 C21.45,103.988333 21.3033333,104.336667 21.45,104.63 C22.2566667,105.29 23.65,105.876667 25.63,106.39 C27.61,106.903333 29.8466667,107.325 32.34,107.655 C34.8333333,107.985 37.4,108.241667 40.04,108.425 C42.68,108.608333 45.0633333,108.7 47.19,108.7 C50.3433333,108.7 52.8733333,108.608333 54.78,108.425 C56.6866667,108.241667 58.2633333,108.003333 59.51,107.71 C60.6833333,107.416667 61.4533333,107.196667 61.82,107.05 C61.8933333,107.05 62.04,107.16 62.26,107.38 C62.48,107.6 62.59,107.856667 62.59,108.15 C62.59,108.296667 62.0583333,108.663333 60.995,109.25 C59.9316667,109.836667 58.85,110.46 57.75,111.12 C57.09,111.486667 56.3016667,111.963333 55.385,112.55 C54.4683333,113.136667 53.4783333,113.705 52.415,114.255 C51.3516667,114.805 50.2333333,115.3 49.06,115.74 C47.8866667,116.18 46.75,116.436667 45.65,116.51 C44.55,116.656667 43.2666667,116.766667 41.8,116.84 C40.3333333,116.913333 38.7933333,116.968333 37.18,117.005 C35.5666667,117.041667 33.935,117.078333 32.285,117.115 C30.635,117.151667 29.1133333,117.17 27.72,117.17 C27.5,117.536667 27.1516667,118.141667 26.675,118.985 C26.1983333,119.828333 25.74,120.91 25.3,122.23 C24.86,123.55 24.4566667,125.053333 24.09,126.74 C23.7233333,128.426667 23.54,130.26 23.54,132.24 C23.54,135.246667 23.9983333,138.015 24.915,140.545 C25.8316667,143.075 27.115,145.256667 28.765,147.09 C30.415,148.923333 32.3766667,150.353333 34.65,151.38 C36.9233333,152.406667 39.38,152.92 42.02,152.92 C43.56,152.92 45.045,152.736667 46.475,152.37 C47.905,152.003333 49.2616667,151.526667 50.545,150.94 C51.8283333,150.353333 53.02,149.711667 54.12,149.015 C55.22,148.318333 56.1733333,147.64 56.98,146.98 L58.3,145.77 Z" id="Path"/>
                <path d="M109.01,114.31 C108.203333,114.97 107.25,115.795 106.15,116.785 C105.05,117.775 103.895,118.728333 102.685,119.645 C101.475,120.561667 100.246667,121.35 99,122.01 C97.7533333,122.67 96.5433333,123 95.37,123 C94.3433333,123 93.4266667,122.761667 92.62,122.285 C91.8133333,121.808333 91.0616667,121.295 90.365,120.745 C89.6683333,120.195 88.99,119.681667 88.33,119.205 C87.67,118.728333 86.9733333,118.49 86.24,118.49 C84.26,118.49 82.5916667,119.296667 81.235,120.91 C79.8783333,122.523333 78.7783333,124.576667 77.935,127.07 C77.0916667,129.563333 76.4683333,132.276667 76.065,135.21 C75.6616667,138.143333 75.46,140.966667 75.46,143.68 C75.46,145.953333 75.5516667,147.805 75.735,149.235 C75.9183333,150.665 76.1933333,151.801667 76.56,152.645 C76.9266667,153.488333 77.4216667,154.056667 78.045,154.35 C78.6683333,154.643333 79.42,154.79 80.3,154.79 C81.2533333,154.79 82.28,154.643333 83.38,154.35 C83.6,154.276667 83.765,154.423333 83.875,154.79 C83.985,155.156667 84.04,155.45 84.04,155.67 C84.04,155.816667 83.93,155.981667 83.71,156.165 C83.49,156.348333 83.3433333,156.44 83.27,156.44 C81.6566667,157.1 80.0066667,157.815 78.32,158.585 C76.6333333,159.355 75.24,159.996667 74.14,160.51 C73.1133333,160.95 71.885,161.426667 70.455,161.94 C69.025,162.453333 67.7966667,162.71 66.77,162.71 C65.5966667,162.71 64.625,162.526667 63.855,162.16 C63.085,161.793333 62.7,161.426667 62.7,161.06 C62.7,160.693333 62.7916667,160.363333 62.975,160.07 C63.1583333,159.776667 63.3233333,159.226667 63.47,158.42 C63.6166667,157.32 63.7816667,156.018333 63.965,154.515 C64.1483333,153.011667 64.3316667,151.38 64.515,149.62 C64.6983333,147.86 64.845,146.045 64.955,144.175 C65.065,142.305 65.12,140.453333 65.12,138.62 C65.12,134.513333 64.9916667,131.03 64.735,128.17 C64.4783333,125.31 64.02,123 63.36,121.24 C62.7,119.48 61.8016667,118.215 60.665,117.445 C59.5283333,116.675 58.08,116.29 56.32,116.29 C55.9533333,116.29 55.6233333,116.29 55.33,116.29 C55.0366667,116.29 54.7433333,116.326667 54.45,116.4 C54.01,116.4 53.79,116.18 53.79,115.74 C53.79,115.3 54.01,114.97 54.45,114.75 C55.2566667,114.236667 56.5033333,113.485 58.19,112.495 C59.8766667,111.505 61.6183333,110.551667 63.415,109.635 C65.2116667,108.718333 66.9533333,107.893333 68.64,107.16 C70.3266667,106.426667 71.5733333,106.06 72.38,106.06 C73.3333333,106.06 74.14,106.371667 74.8,106.995 C75.46,107.618333 75.955,108.406667 76.285,109.36 C76.615,110.313333 76.8533333,111.395 77,112.605 C77.1466667,113.815 77.22,115.006667 77.22,116.18 C77.22,117.06 77.2016667,117.976667 77.165,118.93 C77.1283333,119.883333 77.11,120.91 77.11,122.01 C80.41,117.17 83.38,113.411667 86.02,110.735 C88.66,108.058333 91.1533333,106.72 93.5,106.72 C94.38,106.72 95.2416667,107.086667 96.085,107.82 C96.9283333,108.553333 97.8266667,109.378333 98.78,110.295 C99.7333333,111.211667 100.723333,112.036667 101.75,112.77 C102.776667,113.503333 103.84,113.87 104.94,113.87 C105.893333,113.87 106.59,113.76 107.03,113.54 C107.47,113.32 107.836667,113.136667 108.13,112.99 C108.716667,112.99 109.01,113.393333 109.01,114.2 L109.01,114.31 Z" id="Path"/>
                <path d="M158.07,148.19 C157.263333,149.07 156.016667,150.28 154.33,151.82 C152.643333,153.36 150.608333,154.9 148.225,156.44 C145.841667,157.98 143.183333,159.3 140.25,160.4 C137.316667,161.5 134.2,162.05 130.9,162.05 C127.893333,162.05 124.96,161.591667 122.1,160.675 C119.24,159.758333 116.673333,158.365 114.4,156.495 C112.126667,154.625 110.311667,152.241667 108.955,149.345 C107.598333,146.448333 106.92,142.983333 106.92,138.95 C106.92,135.65 107.14,132.808333 107.58,130.425 C108.02,128.041667 108.606667,125.951667 109.34,124.155 C110.073333,122.358333 110.898333,120.818333 111.815,119.535 C112.731667,118.251667 113.666667,117.096667 114.62,116.07 C115.793333,114.75 117.223333,113.503333 118.91,112.33 C120.596667,111.156667 122.411667,110.093333 124.355,109.14 C126.298333,108.186667 128.351667,107.435 130.515,106.885 C132.678333,106.335 134.86,106.06 137.06,106.06 C141.02,106.06 144.118333,106.72 146.355,108.04 C148.591667,109.36 149.71,111.193333 149.71,113.54 C149.71,115.006667 149.27,116.363333 148.39,117.61 C149.123333,117.39 150.058333,117.023333 151.195,116.51 C152.331667,115.996667 153.486667,115.465 154.66,114.915 C155.833333,114.365 156.878333,113.87 157.795,113.43 C158.711667,112.99 159.316667,112.66 159.61,112.44 C159.756667,112.293333 159.921667,112.238333 160.105,112.275 C160.288333,112.311667 160.38,112.44 160.38,112.66 C160.38,113.613333 160.196667,114.401667 159.83,115.025 C159.463333,115.648333 159.023333,116.143333 158.51,116.51 C157.336667,117.243333 155.65,118.16 153.45,119.26 C151.25,120.36 148.811667,121.515 146.135,122.725 C143.458333,123.935 140.69,125.145 137.83,126.355 C134.97,127.565 132.275,128.72 129.745,129.82 C127.215,130.92 125.015,131.891667 123.145,132.735 C121.275,133.578333 120.01,134.183333 119.35,134.55 C119.35,137.043333 119.845,139.371667 120.835,141.535 C121.825,143.698333 123.2,145.586667 124.96,147.2 C126.72,148.813333 128.828333,150.078333 131.285,150.995 C133.741667,151.911667 136.436667,152.37 139.37,152.37 C142.01,152.37 144.393333,152.095 146.52,151.545 C148.646667,150.995 150.443333,150.371667 151.91,149.675 C153.376667,148.978333 154.531667,148.355 155.375,147.805 C156.218333,147.255 156.676667,146.98 156.75,146.98 C157.043333,146.98 157.336667,147.108333 157.63,147.365 C157.923333,147.621667 158.07,147.896667 158.07,148.19 Z M119.35,131.36 C120.596667,130.92 122.008333,130.388333 123.585,129.765 C125.161667,129.141667 126.701667,128.463333 128.205,127.73 C129.708333,126.996667 131.083333,126.3 132.33,125.64 C133.576667,124.98 134.53,124.393333 135.19,123.88 C136.51,122.926667 137.17,121.313333 137.17,119.04 C137.17,118.16 137.005,117.243333 136.675,116.29 C136.345,115.336667 135.85,114.475 135.19,113.705 C134.53,112.935 133.723333,112.311667 132.77,111.835 C131.816667,111.358333 130.753333,111.12 129.58,111.12 C128.553333,111.12 127.453333,111.468333 126.28,112.165 C125.106667,112.861667 124.006667,113.998333 122.98,115.575 C121.953333,117.151667 121.091667,119.241667 120.395,121.845 C119.698333,124.448333 119.35,127.62 119.35,131.36 Z M141.57,98.91 C141.643333,99.0566667 141.625,99.24 141.515,99.46 C141.405,99.68 141.203333,99.9183333 140.91,100.175 C140.616667,100.431667 140.323333,100.633333 140.03,100.78 C139.736667,100.926667 139.48,100.926667 139.26,100.78 C138.306667,100.193333 137.078333,99.4416667 135.575,98.525 C134.071667,97.6083333 132.495,96.6366667 130.845,95.61 C129.195,94.5833333 127.545,93.5383333 125.895,92.475 C124.245,91.4116667 122.76,90.4583333 121.44,89.615 C120.12,88.7716667 119.038333,88.0383333 118.195,87.415 C117.351667,86.7916667 116.93,86.4066667 116.93,86.26 C116.93,85.9666667 117.186667,85.4533333 117.7,84.72 C118.213333,83.9866667 118.8,83.2716667 119.46,82.575 C120.12,81.8783333 120.743333,81.2733333 121.33,80.76 C121.916667,80.2466667 122.32,80.0266667 122.54,80.1 C122.686667,80.2466667 123.163333,80.7416667 123.97,81.585 C124.776667,82.4283333 125.766667,83.455 126.94,84.665 C128.113333,85.875 129.396667,87.195 130.79,88.625 C132.183333,90.055 133.558333,91.4483333 134.915,92.805 C136.271667,94.1616667 137.536667,95.39 138.71,96.49 C139.883333,97.59 140.836667,98.3966667 141.57,98.91 Z" id="Shape"/>
                <path d="M156.86,158.31 C156.273333,158.676667 155.723333,159.281667 155.21,160.125 C154.696667,160.968333 154.366667,161.61 154.22,162.05 C154.146667,162.196667 153.945,162.325 153.615,162.435 C153.285,162.545 153.046667,162.6 152.9,162.6 C152.24,162.6 151.91,162.27 151.91,161.61 C151.91,161.39 152.203333,160.803333 152.79,159.85 C153.23,159.116667 153.926667,157.961667 154.88,156.385 C155.833333,154.808333 156.805,153.195 157.795,151.545 C158.785,149.895 159.701667,148.391667 160.545,147.035 C161.388333,145.678333 161.993333,144.78 162.36,144.34 C162.726667,143.973333 163.166667,143.918333 163.68,144.175 C164.193333,144.431667 164.34,144.743333 164.12,145.11 C163.973333,145.256667 163.863333,145.44 163.79,145.66 C163.716667,145.88 163.68,146.246667 163.68,146.76 C163.68,147.42 164.248333,148.245 165.385,149.235 C166.521667,150.225 167.97,151.178333 169.73,152.095 C171.49,153.011667 173.433333,153.8 175.56,154.46 C177.686667,155.12 179.776667,155.45 181.83,155.45 C184.25,155.45 186.175,154.753333 187.605,153.36 C189.035,151.966667 189.75,150.133333 189.75,147.86 C189.75,145.293333 188.943333,143.386667 187.33,142.14 C185.716667,140.893333 183.718333,139.94 181.335,139.28 C178.951667,138.62 176.348333,138.088333 173.525,137.685 C170.701667,137.281667 168.098333,136.676667 165.715,135.87 C163.331667,135.063333 161.333333,133.89 159.72,132.35 C158.106667,130.81 157.3,128.573333 157.3,125.64 C157.3,123.366667 158.088333,121.056667 159.665,118.71 C161.241667,116.363333 163.331667,114.273333 165.935,112.44 C168.538333,110.606667 171.526667,109.103333 174.9,107.93 C178.273333,106.756667 181.793333,106.17 185.46,106.17 C186.56,106.17 187.843333,106.28 189.31,106.5 C190.776667,106.72 192.225,106.995 193.655,107.325 C195.085,107.655 196.405,107.985 197.615,108.315 C198.825,108.645 199.723333,108.92 200.31,109.14 C200.456667,109.14 200.42,109.433333 200.2,110.02 C199.98,110.68 199.43,111.688333 198.55,113.045 C197.67,114.401667 196.698333,115.74 195.635,117.06 C194.571667,118.38 193.581667,119.553333 192.665,120.58 C191.748333,121.606667 191.106667,122.12 190.74,122.12 C190.666667,122.12 190.446667,122.12 190.08,122.12 C189.713333,122.12 189.456667,122.046667 189.31,121.9 C189.383333,121.533333 189.42,121.056667 189.42,120.47 C189.42,117.903333 188.265,115.886667 185.955,114.42 C183.645,112.953333 180.29,112.22 175.89,112.22 C173.763333,112.22 172.021667,112.843333 170.665,114.09 C169.308333,115.336667 168.63,116.84 168.63,118.6 C168.63,121.46 169.436667,123.586667 171.05,124.98 C172.663333,126.373333 174.68,127.418333 177.1,128.115 C179.52,128.811667 182.123333,129.343333 184.91,129.71 C187.696667,130.076667 190.3,130.645 192.72,131.415 C195.14,132.185 197.156667,133.34 198.77,134.88 C200.383333,136.42 201.19,138.73 201.19,141.81 C201.19,143.203333 200.896667,144.56 200.31,145.88 C199.723333,147.2 198.953333,148.446667 198,149.62 C197.046667,150.793333 195.983333,151.875 194.81,152.865 C193.636667,153.855 192.463333,154.716667 191.29,155.45 C190.19,156.183333 188.943333,156.935 187.55,157.705 C186.156667,158.475 184.653333,159.19 183.04,159.85 C181.426667,160.51 179.776667,161.041667 178.09,161.445 C176.403333,161.848333 174.716667,162.05 173.03,162.05 C172.223333,162.05 170.94,161.885 169.18,161.555 C167.42,161.225 165.641667,160.84 163.845,160.4 C162.048333,159.96 160.453333,159.538333 159.06,159.135 C157.666667,158.731667 156.933333,158.456667 156.86,158.31 Z" id="Path"/>
                <path d="M268.73,143.9 C268.51,142.653333 268.29,141.296667 268.07,139.83 C267.85,138.363333 267.63,136.97 267.41,135.65 C267.19,134.33 266.988333,133.193333 266.805,132.24 C266.621667,131.286667 266.493333,130.663333 266.42,130.37 C265.246667,130.81 263.926667,131.323333 262.46,131.91 C260.993333,132.496667 259.526667,133.138333 258.06,133.835 C256.593333,134.531667 255.2,135.228333 253.88,135.925 C252.56,136.621667 251.46,137.263333 250.58,137.85 C248.893333,138.95 247.61,140.05 246.73,141.15 C245.85,142.25 245.41,143.57 245.41,145.11 C245.41,147.236667 246.033333,149.106667 247.28,150.72 C248.526667,152.333333 250.47,153.14 253.11,153.14 C254.503333,153.14 255.951667,152.883333 257.455,152.37 C258.958333,151.856667 260.351667,151.27 261.635,150.61 C262.918333,149.95 264.036667,149.29 264.99,148.63 C265.943333,147.97 266.603333,147.456667 266.97,147.09 C267.556667,146.503333 268.015,146.008333 268.345,145.605 C268.675,145.201667 268.803333,144.633333 268.73,143.9 Z M265.54,126.85 C265.1,124.576667 264.586667,122.541667 264,120.745 C263.413333,118.948333 262.68,117.445 261.8,116.235 C260.92,115.025 259.856667,114.108333 258.61,113.485 C257.363333,112.861667 255.823333,112.55 253.99,112.55 C252.376667,112.55 250.891667,112.843333 249.535,113.43 C248.178333,114.016667 247.005,114.713333 246.015,115.52 C245.025,116.326667 244.255,117.133333 243.705,117.94 C243.155,118.746667 242.843333,119.37 242.77,119.81 C242.696667,120.396667 242.366667,120.69 241.78,120.69 C240.753333,120.69 239.8,120.323333 238.92,119.59 C238.04,118.856667 237.6,117.976667 237.6,116.95 C237.6,116.363333 237.673333,115.923333 237.82,115.63 C239.506667,114.676667 241.56,113.65 243.98,112.55 C246.4,111.45 248.911667,110.423333 251.515,109.47 C254.118333,108.516667 256.703333,107.728333 259.27,107.105 C261.836667,106.481667 264.146667,106.17 266.2,106.17 C269.28,106.17 271.645,106.61 273.295,107.49 C274.945,108.37 276.173333,109.616667 276.98,111.23 C277.786667,112.843333 278.281667,114.731667 278.465,116.895 C278.648333,119.058333 278.813333,121.386667 278.96,123.88 C279.18,127.62 279.473333,131.231667 279.84,134.715 C280.206667,138.198333 280.756667,141.278333 281.49,143.955 C282.223333,146.631667 283.158333,148.795 284.295,150.445 C285.431667,152.095 286.843333,152.92 288.53,152.92 C289.336667,152.92 290.216667,152.773333 291.17,152.48 C292.123333,152.186667 293.04,151.838333 293.92,151.435 C294.8,151.031667 295.588333,150.628333 296.285,150.225 C296.981667,149.821667 297.44,149.546667 297.66,149.4 C298.32,149.4 298.723333,149.73 298.87,150.39 C298.87,150.756667 298.796667,151.086667 298.65,151.38 C298.503333,151.526667 297.953333,151.893333 297,152.48 C296.046667,153.066667 294.873333,153.763333 293.48,154.57 C292.086667,155.376667 290.546667,156.238333 288.86,157.155 C287.173333,158.071667 285.505,158.933333 283.855,159.74 C282.205,160.546667 280.683333,161.206667 279.29,161.72 C277.896667,162.233333 276.796667,162.49 275.99,162.49 C275.036667,162.49 274.211667,162.105 273.515,161.335 C272.818333,160.565 272.213333,159.538333 271.7,158.255 C271.186667,156.971667 270.746667,155.486667 270.38,153.8 C270.013333,152.113333 269.683333,150.353333 269.39,148.52 C268.07,149.62 266.383333,150.921667 264.33,152.425 C262.276667,153.928333 260.04,155.34 257.62,156.66 C255.2,157.98 252.725,159.098333 250.195,160.015 C247.665,160.931667 245.226667,161.39 242.88,161.39 C240.9,161.39 239.176667,161.078333 237.71,160.455 C236.243333,159.831667 235.015,159.006667 234.025,157.98 C233.035,156.953333 232.301667,155.761667 231.825,154.405 C231.348333,153.048333 231.11,151.636667 231.11,150.17 C231.11,147.823333 231.825,145.898333 233.255,144.395 C234.685,142.891667 236.903333,141.333333 239.91,139.72 C241.303333,138.986667 243.246667,138.015 245.74,136.805 C248.233333,135.595 250.781667,134.366667 253.385,133.12 C255.988333,131.873333 258.408333,130.681667 260.645,129.545 C262.881667,128.408333 264.513333,127.51 265.54,126.85 Z" id="Shape"/>
                <path d="M310.97,132.02 C310.896667,132.68 310.823333,133.266667 310.75,133.78 C310.676667,134.293333 310.621667,134.88 310.585,135.54 C310.548333,136.2 310.511667,137.025 310.475,138.015 C310.438333,139.005 310.42,140.306667 310.42,141.92 C310.42,144.56 310.511667,146.723333 310.695,148.41 C310.878333,150.096667 311.153333,151.435 311.52,152.425 C311.886667,153.415 312.345,154.093333 312.895,154.46 C313.445,154.826667 314.123333,155.01 314.93,155.01 C315.443333,155.01 315.993333,154.936667 316.58,154.79 C316.726667,154.79 316.855,154.991667 316.965,155.395 C317.075,155.798333 317.056667,156.073333 316.91,156.22 C316.47,156.586667 315.608333,157.118333 314.325,157.815 C313.041667,158.511667 311.593333,159.19 309.98,159.85 C308.366667,160.51 306.698333,161.096667 304.975,161.61 C303.251667,162.123333 301.803333,162.38 300.63,162.38 C299.603333,162.38 298.796667,162.251667 298.21,161.995 C297.623333,161.738333 297.33,161.426667 297.33,161.06 C297.33,160.693333 297.366667,160.473333 297.44,160.4 C297.513333,160.326667 297.623333,160.143333 297.77,159.85 C297.916667,159.483333 298.026667,159.025 298.1,158.475 C298.173333,157.925 298.283333,157.283333 298.43,156.55 C298.576667,155.523333 298.723333,154.221667 298.87,152.645 C299.016667,151.068333 299.163333,149.345 299.31,147.475 C299.456667,145.605 299.585,143.661667 299.695,141.645 C299.805,139.628333 299.86,137.666667 299.86,135.76 C299.86,134.953333 299.841667,133.945 299.805,132.735 C299.768333,131.525 299.713333,129.966667 299.64,128.06 C299.566667,125.933333 299.328333,124.118333 298.925,122.615 C298.521667,121.111667 298.008333,119.901667 297.385,118.985 C296.761667,118.068333 296.065,117.39 295.295,116.95 C294.525,116.51 293.773333,116.29 293.04,116.29 C292.673333,116.29 292.306667,116.29 291.94,116.29 C291.573333,116.29 291.206667,116.326667 290.84,116.4 C290.546667,116.4 290.4,116.07 290.4,115.41 C290.4,115.263333 290.455,115.135 290.565,115.025 C290.675,114.915 291.023333,114.676667 291.61,114.31 C292.563333,113.65 293.846667,112.843333 295.46,111.89 C297.073333,110.936667 298.723333,110.056667 300.41,109.25 C302.096667,108.443333 303.691667,107.746667 305.195,107.16 C306.698333,106.573333 307.853333,106.28 308.66,106.28 C310.786667,106.28 311.85,107.49 311.85,109.91 C311.85,110.276667 311.813333,110.936667 311.74,111.89 C311.666667,112.843333 311.611667,113.815 311.575,114.805 C311.538333,115.795 311.483333,116.73 311.41,117.61 C311.336667,118.49 311.3,119.076667 311.3,119.37 C312.84,117.903333 314.49,116.4 316.25,114.86 C318.01,113.32 319.916667,111.908333 321.97,110.625 C324.023333,109.341667 326.186667,108.296667 328.46,107.49 C330.733333,106.683333 333.08,106.28 335.5,106.28 C339.9,106.28 343.511667,107.545 346.335,110.075 C349.158333,112.605 350.57,116.62 350.57,122.12 C350.57,123.586667 350.478333,125.31 350.295,127.29 C350.111667,129.27 349.91,131.323333 349.69,133.45 C349.47,135.576667 349.268333,137.666667 349.085,139.72 C348.901667,141.773333 348.81,143.606667 348.81,145.22 C348.81,151.086667 350.716667,154.02 354.53,154.02 C355.263333,154.02 356.088333,153.891667 357.005,153.635 C357.921667,153.378333 358.801667,153.085 359.645,152.755 C360.488333,152.425 361.24,152.095 361.9,151.765 C362.56,151.435 363,151.16 363.22,150.94 C363.293333,150.866667 363.385,150.921667 363.495,151.105 C363.605,151.288333 363.696667,151.526667 363.77,151.82 C363.843333,152.113333 363.861667,152.37 363.825,152.59 C363.788333,152.81 363.733333,152.956667 363.66,153.03 C363.073333,153.396667 361.808333,154.093333 359.865,155.12 C357.921667,156.146667 355.758333,157.191667 353.375,158.255 C350.991667,159.318333 348.626667,160.271667 346.28,161.115 C343.933333,161.958333 342.063333,162.38 340.67,162.38 C338.983333,162.38 337.828333,161.976667 337.205,161.17 C336.581667,160.363333 336.27,159.52 336.27,158.64 C336.27,158.053333 336.361667,157.32 336.545,156.44 C336.728333,155.56 336.966667,154.13 337.26,152.15 C337.553333,150.023333 337.828333,147.53 338.085,144.67 C338.341667,141.81 338.47,138.73 338.47,135.43 C338.47,128.976667 337.278333,124.081667 334.895,120.745 C332.511667,117.408333 329.523333,115.74 325.93,115.74 C323.656667,115.74 321.64,116.18 319.88,117.06 C318.12,117.94 316.616667,119.131667 315.37,120.635 C314.123333,122.138333 313.133333,123.861667 312.4,125.805 C311.666667,127.748333 311.19,129.82 310.97,132.02 Z" id="Path"/>
                <path d="M408.1,111.12 C407.953333,111.56 407.531667,112.238333 406.835,113.155 C406.138333,114.071667 405.313333,115.025 404.36,116.015 C403.406667,117.005 402.398333,117.958333 401.335,118.875 C400.271667,119.791667 399.336667,120.47 398.53,120.91 C398.016667,121.13 397.705,121.056667 397.595,120.69 C397.485,120.323333 397.43,119.956667 397.43,119.59 C397.43,119.003333 397.118333,118.27 396.495,117.39 C395.871667,116.51 394.991667,115.648333 393.855,114.805 C392.718333,113.961667 391.38,113.246667 389.84,112.66 C388.3,112.073333 386.613333,111.78 384.78,111.78 C381.626667,111.78 379.06,113.485 377.08,116.895 C375.1,120.305 374.11,124.833333 374.11,130.48 C374.11,133.926667 374.641667,137.025 375.705,139.775 C376.768333,142.525 378.235,144.835 380.105,146.705 C381.975,148.575 384.23,150.005 386.87,150.995 C389.51,151.985 392.37,152.48 395.45,152.48 C399.63,152.48 402.966667,151.948333 405.46,150.885 C407.953333,149.821667 410.006667,148.593333 411.62,147.2 C411.693333,147.2 411.748333,147.163333 411.785,147.09 C411.821667,147.016667 411.876667,146.98 411.95,146.98 C412.316667,146.98 412.573333,147.108333 412.72,147.365 C412.866667,147.621667 412.94,147.933333 412.94,148.3 C412.94,148.593333 412.866667,148.813333 412.72,148.96 C411.62,149.84 410.098333,151.013333 408.155,152.48 C406.211667,153.946667 403.993333,155.395 401.5,156.825 C399.006667,158.255 396.403333,159.483333 393.69,160.51 C390.976667,161.536667 388.3,162.05 385.66,162.05 C378.106667,162.05 372.221667,159.85 368.005,155.45 C363.788333,151.05 361.68,145.036667 361.68,137.41 C361.68,131.616667 362.798333,126.74 365.035,122.78 C367.271667,118.82 370.021667,115.648333 373.285,113.265 C376.548333,110.881667 380.013333,109.176667 383.68,108.15 C387.346667,107.123333 390.573333,106.61 393.36,106.61 C395.633333,106.61 397.668333,106.775 399.465,107.105 C401.261667,107.435 402.801667,107.838333 404.085,108.315 C405.368333,108.791667 406.358333,109.286667 407.055,109.8 C407.751667,110.313333 408.1,110.753333 408.1,111.12 Z" id="Path"/>
                <path d="M428.23,141.92 C428.23,143.46 428.266667,144.945 428.34,146.375 C428.413333,147.805 428.67,149.033333 429.11,150.06 C429.55,151.086667 430.21,151.911667 431.09,152.535 C431.97,153.158333 433.216667,153.47 434.83,153.47 C435.636667,153.47 436.553333,153.378333 437.58,153.195 C438.606667,153.011667 439.578333,152.773333 440.495,152.48 C441.411667,152.186667 442.218333,151.893333 442.915,151.6 C443.611667,151.306667 444.033333,151.086667 444.18,150.94 C444.4,150.72 444.546667,150.72 444.62,150.94 C444.693333,151.16 444.711667,151.435 444.675,151.765 C444.638333,152.095 444.546667,152.425 444.4,152.755 C444.253333,153.085 444.07,153.323333 443.85,153.47 C443.116667,153.836667 441.833333,154.496667 440,155.45 C438.166667,156.403333 436.003333,157.393333 433.51,158.42 C431.163333,159.446667 428.871667,160.308333 426.635,161.005 C424.398333,161.701667 422.546667,162.05 421.08,162.05 C419.393333,162.05 418.073333,161.536667 417.12,160.51 C416.166667,159.483333 415.69,158.2 415.69,156.66 C415.69,156.146667 415.708333,155.706667 415.745,155.34 C415.781667,154.973333 415.836667,154.496667 415.91,153.91 C415.983333,153.176667 416.111667,151.838333 416.295,149.895 C416.478333,147.951667 416.661667,145.77 416.845,143.35 C417.028333,140.93 417.193333,138.491667 417.34,136.035 C417.486667,133.578333 417.56,131.47 417.56,129.71 L417.56,125.86 C417.56,123.953333 417.45,122.266667 417.23,120.8 C417.01,119.333333 416.643333,118.196667 416.13,117.39 C415.763333,116.876667 415.305,116.455 414.755,116.125 C414.205,115.795 413.526667,115.63 412.72,115.63 C412.28,115.63 411.84,115.721667 411.4,115.905 C410.96,116.088333 410.63,116.18 410.41,116.18 C410.263333,116.18 410.025,115.96 409.695,115.52 C409.365,115.08 409.383333,114.75 409.75,114.53 C410.263333,114.163333 411.326667,113.576667 412.94,112.77 C414.553333,111.963333 416.313333,111.083333 418.22,110.13 C420.273333,109.103333 422.253333,108.205 424.16,107.435 C426.066667,106.665 427.423333,106.28 428.23,106.28 C429.036667,106.28 429.586667,106.518333 429.88,106.995 C430.173333,107.471667 430.32,108.003333 430.32,108.59 L430.32,109.03 C430.32,109.763333 430.21,110.936667 429.99,112.55 C429.77,114.163333 429.531667,116.143333 429.275,118.49 C429.018333,120.836667 428.78,123.55 428.56,126.63 C428.34,129.71 428.23,133.046667 428.23,136.64 L428.23,141.92 Z M423.83,84.72 C424.196667,84.7933333 424.801667,85.1966667 425.645,85.93 C426.488333,86.6633333 427.35,87.5066667 428.23,88.46 C429.11,89.4133333 429.88,90.33 430.54,91.21 C431.2,92.09 431.53,92.6766667 431.53,92.97 C431.53,93.3366667 431.09,93.8866667 430.21,94.62 C429.33,95.3533333 428.321667,96.105 427.185,96.875 C426.048333,97.645 424.948333,98.3233333 423.885,98.91 C422.821667,99.4966667 422.07,99.79 421.63,99.79 C421.41,99.79 420.878333,99.4416667 420.035,98.745 C419.191667,98.0483333 418.33,97.26 417.45,96.38 C416.57,95.5 415.781667,94.6383333 415.085,93.795 C414.388333,92.9516667 414.04,92.3833333 414.04,92.09 C414.04,91.7233333 414.516667,91.155 415.47,90.385 C416.423333,89.615 417.468333,88.8083333 418.605,87.965 C419.741667,87.1216667 420.841667,86.3883333 421.905,85.765 C422.968333,85.1416667 423.61,84.7933333 423.83,84.72 Z" id="Shape"/>
                <path d="M492.03,148.19 C491.223333,149.07 489.976667,150.28 488.29,151.82 C486.603333,153.36 484.568333,154.9 482.185,156.44 C479.801667,157.98 477.143333,159.3 474.21,160.4 C471.276667,161.5 468.16,162.05 464.86,162.05 C461.853333,162.05 458.92,161.591667 456.06,160.675 C453.2,159.758333 450.633333,158.365 448.36,156.495 C446.086667,154.625 444.271667,152.241667 442.915,149.345 C441.558333,146.448333 440.88,142.983333 440.88,138.95 C440.88,135.65 441.1,132.808333 441.54,130.425 C441.98,128.041667 442.566667,125.951667 443.3,124.155 C444.033333,122.358333 444.858333,120.818333 445.775,119.535 C446.691667,118.251667 447.626667,117.096667 448.58,116.07 C449.753333,114.75 451.183333,113.503333 452.87,112.33 C454.556667,111.156667 456.371667,110.093333 458.315,109.14 C460.258333,108.186667 462.311667,107.435 464.475,106.885 C466.638333,106.335 468.82,106.06 471.02,106.06 C474.98,106.06 478.078333,106.72 480.315,108.04 C482.551667,109.36 483.67,111.193333 483.67,113.54 C483.67,115.006667 483.23,116.363333 482.35,117.61 C483.083333,117.39 484.018333,117.023333 485.155,116.51 C486.291667,115.996667 487.446667,115.465 488.62,114.915 C489.793333,114.365 490.838333,113.87 491.755,113.43 C492.671667,112.99 493.276667,112.66 493.57,112.44 C493.716667,112.293333 493.881667,112.238333 494.065,112.275 C494.248333,112.311667 494.34,112.44 494.34,112.66 C494.34,113.613333 494.156667,114.401667 493.79,115.025 C493.423333,115.648333 492.983333,116.143333 492.47,116.51 C491.296667,117.243333 489.61,118.16 487.41,119.26 C485.21,120.36 482.771667,121.515 480.095,122.725 C477.418333,123.935 474.65,125.145 471.79,126.355 C468.93,127.565 466.235,128.72 463.705,129.82 C461.175,130.92 458.975,131.891667 457.105,132.735 C455.235,133.578333 453.97,134.183333 453.31,134.55 C453.31,137.043333 453.805,139.371667 454.795,141.535 C455.785,143.698333 457.16,145.586667 458.92,147.2 C460.68,148.813333 462.788333,150.078333 465.245,150.995 C467.701667,151.911667 470.396667,152.37 473.33,152.37 C475.97,152.37 478.353333,152.095 480.48,151.545 C482.606667,150.995 484.403333,150.371667 485.87,149.675 C487.336667,148.978333 488.491667,148.355 489.335,147.805 C490.178333,147.255 490.636667,146.98 490.71,146.98 C491.003333,146.98 491.296667,147.108333 491.59,147.365 C491.883333,147.621667 492.03,147.896667 492.03,148.19 Z M453.31,131.36 C454.556667,130.92 455.968333,130.388333 457.545,129.765 C459.121667,129.141667 460.661667,128.463333 462.165,127.73 C463.668333,126.996667 465.043333,126.3 466.29,125.64 C467.536667,124.98 468.49,124.393333 469.15,123.88 C470.47,122.926667 471.13,121.313333 471.13,119.04 C471.13,118.16 470.965,117.243333 470.635,116.29 C470.305,115.336667 469.81,114.475 469.15,113.705 C468.49,112.935 467.683333,112.311667 466.73,111.835 C465.776667,111.358333 464.713333,111.12 463.54,111.12 C462.513333,111.12 461.413333,111.468333 460.24,112.165 C459.066667,112.861667 457.966667,113.998333 456.94,115.575 C455.913333,117.151667 455.051667,119.241667 454.355,121.845 C453.658333,124.448333 453.31,127.62 453.31,131.36 Z" id="Shape"/>
                <path d="M509.96,132.02 C509.886667,132.68 509.813333,133.266667 509.74,133.78 C509.666667,134.293333 509.611667,134.88 509.575,135.54 C509.538333,136.2 509.501667,137.025 509.465,138.015 C509.428333,139.005 509.41,140.306667 509.41,141.92 C509.41,144.56 509.501667,146.723333 509.685,148.41 C509.868333,150.096667 510.143333,151.435 510.51,152.425 C510.876667,153.415 511.335,154.093333 511.885,154.46 C512.435,154.826667 513.113333,155.01 513.92,155.01 C514.433333,155.01 514.983333,154.936667 515.57,154.79 C515.716667,154.79 515.845,154.991667 515.955,155.395 C516.065,155.798333 516.046667,156.073333 515.9,156.22 C515.46,156.586667 514.598333,157.118333 513.315,157.815 C512.031667,158.511667 510.583333,159.19 508.97,159.85 C507.356667,160.51 505.688333,161.096667 503.965,161.61 C502.241667,162.123333 500.793333,162.38 499.62,162.38 C498.593333,162.38 497.786667,162.251667 497.2,161.995 C496.613333,161.738333 496.32,161.426667 496.32,161.06 C496.32,160.693333 496.356667,160.473333 496.43,160.4 C496.503333,160.326667 496.613333,160.143333 496.76,159.85 C496.906667,159.483333 497.016667,159.025 497.09,158.475 C497.163333,157.925 497.273333,157.283333 497.42,156.55 C497.566667,155.523333 497.713333,154.221667 497.86,152.645 C498.006667,151.068333 498.153333,149.345 498.3,147.475 C498.446667,145.605 498.575,143.661667 498.685,141.645 C498.795,139.628333 498.85,137.666667 498.85,135.76 C498.85,134.953333 498.831667,133.945 498.795,132.735 C498.758333,131.525 498.703333,129.966667 498.63,128.06 C498.556667,125.933333 498.318333,124.118333 497.915,122.615 C497.511667,121.111667 496.998333,119.901667 496.375,118.985 C495.751667,118.068333 495.055,117.39 494.285,116.95 C493.515,116.51 492.763333,116.29 492.03,116.29 C491.663333,116.29 491.296667,116.29 490.93,116.29 C490.563333,116.29 490.196667,116.326667 489.83,116.4 C489.536667,116.4 489.39,116.07 489.39,115.41 C489.39,115.263333 489.445,115.135 489.555,115.025 C489.665,114.915 490.013333,114.676667 490.6,114.31 C491.553333,113.65 492.836667,112.843333 494.45,111.89 C496.063333,110.936667 497.713333,110.056667 499.4,109.25 C501.086667,108.443333 502.681667,107.746667 504.185,107.16 C505.688333,106.573333 506.843333,106.28 507.65,106.28 C509.776667,106.28 510.84,107.49 510.84,109.91 C510.84,110.276667 510.803333,110.936667 510.73,111.89 C510.656667,112.843333 510.601667,113.815 510.565,114.805 C510.528333,115.795 510.473333,116.73 510.4,117.61 C510.326667,118.49 510.29,119.076667 510.29,119.37 C511.83,117.903333 513.48,116.4 515.24,114.86 C517,113.32 518.906667,111.908333 520.96,110.625 C523.013333,109.341667 525.176667,108.296667 527.45,107.49 C529.723333,106.683333 532.07,106.28 534.49,106.28 C538.89,106.28 542.501667,107.545 545.325,110.075 C548.148333,112.605 549.56,116.62 549.56,122.12 C549.56,123.586667 549.468333,125.31 549.285,127.29 C549.101667,129.27 548.9,131.323333 548.68,133.45 C548.46,135.576667 548.258333,137.666667 548.075,139.72 C547.891667,141.773333 547.8,143.606667 547.8,145.22 C547.8,151.086667 549.706667,154.02 553.52,154.02 C554.253333,154.02 555.078333,153.891667 555.995,153.635 C556.911667,153.378333 557.791667,153.085 558.635,152.755 C559.478333,152.425 560.23,152.095 560.89,151.765 C561.55,151.435 561.99,151.16 562.21,150.94 C562.283333,150.866667 562.375,150.921667 562.485,151.105 C562.595,151.288333 562.686667,151.526667 562.76,151.82 C562.833333,152.113333 562.851667,152.37 562.815,152.59 C562.778333,152.81 562.723333,152.956667 562.65,153.03 C562.063333,153.396667 560.798333,154.093333 558.855,155.12 C556.911667,156.146667 554.748333,157.191667 552.365,158.255 C549.981667,159.318333 547.616667,160.271667 545.27,161.115 C542.923333,161.958333 541.053333,162.38 539.66,162.38 C537.973333,162.38 536.818333,161.976667 536.195,161.17 C535.571667,160.363333 535.26,159.52 535.26,158.64 C535.26,158.053333 535.351667,157.32 535.535,156.44 C535.718333,155.56 535.956667,154.13 536.25,152.15 C536.543333,150.023333 536.818333,147.53 537.075,144.67 C537.331667,141.81 537.46,138.73 537.46,135.43 C537.46,128.976667 536.268333,124.081667 533.885,120.745 C531.501667,117.408333 528.513333,115.74 524.92,115.74 C522.646667,115.74 520.63,116.18 518.87,117.06 C517.11,117.94 515.606667,119.131667 514.36,120.635 C513.113333,122.138333 512.123333,123.861667 511.39,125.805 C510.656667,127.748333 510.18,129.82 509.96,132.02 Z" id="Path"/>
                <path d="M578.71,132.02 C578.636667,132.68 578.563333,133.266667 578.49,133.78 C578.416667,134.293333 578.361667,134.88 578.325,135.54 C578.288333,136.2 578.251667,137.025 578.215,138.015 C578.178333,139.005 578.16,140.306667 578.16,141.92 C578.16,144.56 578.251667,146.723333 578.435,148.41 C578.618333,150.096667 578.893333,151.435 579.26,152.425 C579.626667,153.415 580.085,154.093333 580.635,154.46 C581.185,154.826667 581.863333,155.01 582.67,155.01 C583.183333,155.01 583.733333,154.936667 584.32,154.79 C584.466667,154.79 584.595,154.991667 584.705,155.395 C584.815,155.798333 584.796667,156.073333 584.65,156.22 C584.21,156.586667 583.348333,157.118333 582.065,157.815 C580.781667,158.511667 579.333333,159.19 577.72,159.85 C576.106667,160.51 574.438333,161.096667 572.715,161.61 C570.991667,162.123333 569.543333,162.38 568.37,162.38 C567.343333,162.38 566.536667,162.251667 565.95,161.995 C565.363333,161.738333 565.07,161.426667 565.07,161.06 C565.07,160.693333 565.106667,160.473333 565.18,160.4 C565.253333,160.326667 565.363333,160.143333 565.51,159.85 C565.656667,159.483333 565.766667,159.025 565.84,158.475 C565.913333,157.925 566.023333,157.283333 566.17,156.55 C566.316667,155.523333 566.463333,154.221667 566.61,152.645 C566.756667,151.068333 566.903333,149.345 567.05,147.475 C567.196667,145.605 567.325,143.661667 567.435,141.645 C567.545,139.628333 567.6,137.666667 567.6,135.76 C567.6,134.953333 567.581667,133.945 567.545,132.735 C567.508333,131.525 567.453333,129.966667 567.38,128.06 C567.306667,125.933333 567.068333,124.118333 566.665,122.615 C566.261667,121.111667 565.748333,119.901667 565.125,118.985 C564.501667,118.068333 563.805,117.39 563.035,116.95 C562.265,116.51 561.513333,116.29 560.78,116.29 C560.413333,116.29 560.046667,116.29 559.68,116.29 C559.313333,116.29 558.946667,116.326667 558.58,116.4 C558.286667,116.4 558.14,116.07 558.14,115.41 C558.14,115.263333 558.195,115.135 558.305,115.025 C558.415,114.915 558.763333,114.676667 559.35,114.31 C560.303333,113.65 561.586667,112.843333 563.2,111.89 C564.813333,110.936667 566.463333,110.056667 568.15,109.25 C569.836667,108.443333 571.431667,107.746667 572.935,107.16 C574.438333,106.573333 575.593333,106.28 576.4,106.28 C578.526667,106.28 579.59,107.49 579.59,109.91 C579.59,110.276667 579.553333,110.936667 579.48,111.89 C579.406667,112.843333 579.351667,113.815 579.315,114.805 C579.278333,115.795 579.223333,116.73 579.15,117.61 C579.076667,118.49 579.04,119.076667 579.04,119.37 C580.58,117.903333 582.23,116.4 583.99,114.86 C585.75,113.32 587.656667,111.908333 589.71,110.625 C591.763333,109.341667 593.926667,108.296667 596.2,107.49 C598.473333,106.683333 600.82,106.28 603.24,106.28 C607.64,106.28 611.251667,107.545 614.075,110.075 C616.898333,112.605 618.31,116.62 618.31,122.12 C618.31,123.586667 618.218333,125.31 618.035,127.29 C617.851667,129.27 617.65,131.323333 617.43,133.45 C617.21,135.576667 617.008333,137.666667 616.825,139.72 C616.641667,141.773333 616.55,143.606667 616.55,145.22 C616.55,151.086667 618.456667,154.02 622.27,154.02 C623.003333,154.02 623.828333,153.891667 624.745,153.635 C625.661667,153.378333 626.541667,153.085 627.385,152.755 C628.228333,152.425 628.98,152.095 629.64,151.765 C630.3,151.435 630.74,151.16 630.96,150.94 C631.033333,150.866667 631.125,150.921667 631.235,151.105 C631.345,151.288333 631.436667,151.526667 631.51,151.82 C631.583333,152.113333 631.601667,152.37 631.565,152.59 C631.528333,152.81 631.473333,152.956667 631.4,153.03 C630.813333,153.396667 629.548333,154.093333 627.605,155.12 C625.661667,156.146667 623.498333,157.191667 621.115,158.255 C618.731667,159.318333 616.366667,160.271667 614.02,161.115 C611.673333,161.958333 609.803333,162.38 608.41,162.38 C606.723333,162.38 605.568333,161.976667 604.945,161.17 C604.321667,160.363333 604.01,159.52 604.01,158.64 C604.01,158.053333 604.101667,157.32 604.285,156.44 C604.468333,155.56 604.706667,154.13 605,152.15 C605.293333,150.023333 605.568333,147.53 605.825,144.67 C606.081667,141.81 606.21,138.73 606.21,135.43 C606.21,128.976667 605.018333,124.081667 602.635,120.745 C600.251667,117.408333 597.263333,115.74 593.67,115.74 C591.396667,115.74 589.38,116.18 587.62,117.06 C585.86,117.94 584.356667,119.131667 583.11,120.635 C581.863333,122.138333 580.873333,123.861667 580.14,125.805 C579.406667,127.748333 578.93,129.82 578.71,132.02 Z" id="Path"/>
                <path d="M680.57,148.19 C679.763333,149.07 678.516667,150.28 676.83,151.82 C675.143333,153.36 673.108333,154.9 670.725,156.44 C668.341667,157.98 665.683333,159.3 662.75,160.4 C659.816667,161.5 656.7,162.05 653.4,162.05 C650.393333,162.05 647.46,161.591667 644.6,160.675 C641.74,159.758333 639.173333,158.365 636.9,156.495 C634.626667,154.625 632.811667,152.241667 631.455,149.345 C630.098333,146.448333 629.42,142.983333 629.42,138.95 C629.42,135.65 629.64,132.808333 630.08,130.425 C630.52,128.041667 631.106667,125.951667 631.84,124.155 C632.573333,122.358333 633.398333,120.818333 634.315,119.535 C635.231667,118.251667 636.166667,117.096667 637.12,116.07 C638.293333,114.75 639.723333,113.503333 641.41,112.33 C643.096667,111.156667 644.911667,110.093333 646.855,109.14 C648.798333,108.186667 650.851667,107.435 653.015,106.885 C655.178333,106.335 657.36,106.06 659.56,106.06 C663.52,106.06 666.618333,106.72 668.855,108.04 C671.091667,109.36 672.21,111.193333 672.21,113.54 C672.21,115.006667 671.77,116.363333 670.89,117.61 C671.623333,117.39 672.558333,117.023333 673.695,116.51 C674.831667,115.996667 675.986667,115.465 677.16,114.915 C678.333333,114.365 679.378333,113.87 680.295,113.43 C681.211667,112.99 681.816667,112.66 682.11,112.44 C682.256667,112.293333 682.421667,112.238333 682.605,112.275 C682.788333,112.311667 682.88,112.44 682.88,112.66 C682.88,113.613333 682.696667,114.401667 682.33,115.025 C681.963333,115.648333 681.523333,116.143333 681.01,116.51 C679.836667,117.243333 678.15,118.16 675.95,119.26 C673.75,120.36 671.311667,121.515 668.635,122.725 C665.958333,123.935 663.19,125.145 660.33,126.355 C657.47,127.565 654.775,128.72 652.245,129.82 C649.715,130.92 647.515,131.891667 645.645,132.735 C643.775,133.578333 642.51,134.183333 641.85,134.55 C641.85,137.043333 642.345,139.371667 643.335,141.535 C644.325,143.698333 645.7,145.586667 647.46,147.2 C649.22,148.813333 651.328333,150.078333 653.785,150.995 C656.241667,151.911667 658.936667,152.37 661.87,152.37 C664.51,152.37 666.893333,152.095 669.02,151.545 C671.146667,150.995 672.943333,150.371667 674.41,149.675 C675.876667,148.978333 677.031667,148.355 677.875,147.805 C678.718333,147.255 679.176667,146.98 679.25,146.98 C679.543333,146.98 679.836667,147.108333 680.13,147.365 C680.423333,147.621667 680.57,147.896667 680.57,148.19 Z M641.85,131.36 C643.096667,130.92 644.508333,130.388333 646.085,129.765 C647.661667,129.141667 649.201667,128.463333 650.705,127.73 C652.208333,126.996667 653.583333,126.3 654.83,125.64 C656.076667,124.98 657.03,124.393333 657.69,123.88 C659.01,122.926667 659.67,121.313333 659.67,119.04 C659.67,118.16 659.505,117.243333 659.175,116.29 C658.845,115.336667 658.35,114.475 657.69,113.705 C657.03,112.935 656.223333,112.311667 655.27,111.835 C654.316667,111.358333 653.253333,111.12 652.08,111.12 C651.053333,111.12 649.953333,111.468333 648.78,112.165 C647.606667,112.861667 646.506667,113.998333 645.48,115.575 C644.453333,117.151667 643.591667,119.241667 642.895,121.845 C642.198333,124.448333 641.85,127.62 641.85,131.36 Z" id="Shape"/>
            </g>
        </g>
    </g>
</svg>